<?xml version="1.0" encoding="UTF-8"?>
<svg width="78px" height="25px" viewBox="0 0 78 25" version="1.1" xmlns="http://www.w3.org/2000/svg" xmlns:xlink="http://www.w3.org/1999/xlink">
    <!-- Generator: Sketch 59.1 (86144) - https://sketch.com -->
    <title>logo_Visa</title>
    <desc>Created with Sketch.</desc>
    <g id="Symbols" stroke="none" stroke-width="1" fill="none" fill-rule="evenodd">
        <g id="card/payment/logo/Visa" fill="#FFFFFF" fill-rule="nonzero">
            <g id="card/payment/logo_Visa">
                <g id="logo_Visa">
                    <polygon id="polygon9" points="33.437676 24.6129481 27.1868477 24.6129481 31.0965636 0.438201982 37.3470501 0.438201982"></polygon>
                    <path d="M56.0974842,1.02920555 C54.8645462,0.540063788 52.9090046,-8.87420525e-06 50.490983,-8.87420525e-06 C44.3180893,-8.87420525e-06 39.971188,3.29169982 39.9445261,7.99785198 C39.8932534,11.4700406 43.0567803,13.3985786 45.4228455,14.5563166 C47.8412088,15.7393492 48.6632815,16.5115164 48.6632815,17.5660254 C48.6386705,19.1855597 46.7091071,19.9320905 44.9094346,19.9320905 C42.4138204,19.9320905 41.0766278,19.5472033 39.044519,18.6461707 L38.2214209,18.2599162 L37.3467083,23.686621 C38.8127663,24.3545336 41.5138132,24.9472463 44.3180893,24.9732245 C50.8768957,24.9732245 55.1468879,21.7324467 55.197477,16.7172909 C55.2224297,13.9653131 53.5519645,11.856637 49.9505686,10.1335317 C47.7642997,9.02740821 46.4253981,8.28156103 46.4253981,7.14980117 C46.4510344,6.12092857 47.5578416,5.06710324 50.0257686,5.06710324 C52.0578774,5.0154887 53.550939,5.50394682 54.6820153,5.99274676 L55.2473825,6.24945219 L56.0974842,1.02920555 L56.0974842,1.02920555 L56.0974842,1.02920555 Z" id="path11"></path>
                    <path d="M64.4053741,16.0486946 C64.9201522,14.6598875 66.9009883,9.28479727 66.9009883,9.28479727 C66.8750102,9.33641181 67.414741,7.87035381 67.7234028,6.97034665 L68.1602464,9.05338639 C68.1602464,9.05338639 69.3439626,14.8400257 69.6010098,16.0486946 C68.6240936,16.0486946 65.6400212,16.0486946 64.4053741,16.0486946 L64.4053741,16.0486946 Z M72.121235,0.438201982 L67.2862174,0.438201982 C65.7952067,0.438201982 64.6624213,0.875045565 64.0191196,2.44399083 L54.7343134,24.6126063 L61.2931199,24.6126063 C61.2931199,24.6126063 62.3729234,21.6288758 62.6050179,20.9862577 C63.3245451,20.9862577 69.7049225,20.9862577 70.6305661,20.9862577 C70.8100206,21.8349921 71.3764132,24.6126063 71.3764132,24.6126063 L77.164078,24.6126063 L72.121235,0.438201982 L72.121235,0.438201982 L72.121235,0.438201982 Z" id="path13"></path>
                    <path d="M10.1598607,0.438201982 C11.5230314,0.489132885 12.6291549,0.926318286 12.9890894,2.47031083 L12.9890894,2.47031083 L15.1753582,13.5807677 L15.1753582,13.5807677 L15.1753582,13.5797422 L15.8442963,16.9230654 L21.9659174,0.438201982 L28.5756548,0.438201982 L18.7504342,24.5873118 L12.140355,24.5873118 L6.5697593,3.58203716 C4.64730101,2.4579981 2.45318656,1.55398578 7.08487997e-08,0.926660105 L7.08487997e-08,0.926660105 L0.102887331,0.438201982 Z" id="Combined-Shape"></path>
                </g>
            </g>
        </g>
    </g>
</svg>