<?xml version="1.0" encoding="UTF-8"?>
<svg width="46px" height="46px" viewBox="0 0 46 46" version="1.1" xmlns="http://www.w3.org/2000/svg" xmlns:xlink="http://www.w3.org/1999/xlink">
    <path opacity="0" d="
        M0,8
        A8 8 0 0 1 8 0
        L8,4
        A4 4 0 0 0 4 8
    " fill="#f00" />
    <path
            id="quarter"
            d="
                M23,23
                L4,23 4,18 0,18 0,0 8,0
                A8 8 0 0 0 0 8
                L4,8
                A4 4 0 0 1 8 4
                L8,0 18,0 18,4 23,4
            "
            fill="#fff"
    />
    <g transform="translate(46,0) rotate(90, 0, 0)"><use xlink:href="#quarter"/></g>
    <g transform="translate(46,46) rotate(180, 0, 0)"><use xlink:href="#quarter"/></g>
    <g transform="translate(0,46) rotate(-90, 0, 0)"><use xlink:href="#quarter"/></g>
</svg>
