<?xml version="1.0" encoding="UTF-8"?>
<svg width="153px" height="32px" viewBox="0 0 1528 302" version="1.1" xmlns="http://www.w3.org/2000/svg" xmlns:xlink="http://www.w3.org/1999/xlink">
    <title>pbb</title>
    <g id="pbb" stroke="none" stroke-width="1" fill="none" fill-rule="evenodd">
        <g id="Group" transform="translate(957.540000, 0.430000)">
            <path d="M209.32,46.05 L185.95,46.05 C184.416926,46.0445149 183.175485,44.8030738 183.17,43.27 L183.17,2.78 C183.175485,1.24692615 184.416926,0.00548511109 185.95,8.52651283e-14 L209.32,8.52651283e-14 C210.853074,0.00548511109 212.094515,1.24692615 212.1,2.78 L212.1,43.27 C212.094515,44.8030738 210.853074,46.0445149 209.32,46.05 Z" id="Path" stroke="#8EB1B7" stroke-width="2"></path>
            <path d="M214.84,56.8 L196.93,41.8 C196.365196,41.327379 196.01185,40.6492962 195.948051,39.9156042 C195.884252,39.1819123 196.115251,38.4530169 196.59,37.89 L222.59,6.89 C223.062621,6.32519589 223.740704,5.97185048 224.474396,5.90805118 C225.208088,5.84425188 225.936983,6.07525136 226.5,6.55 L244.38,21.57 C245.551078,22.557141 245.703112,24.3055382 244.72,25.48 L218.72,56.48 C217.729685,57.6256198 216.004625,57.7678928 214.84,56.8 L214.84,56.8 Z" id="Path" stroke="#8EB1B7" stroke-width="2"></path>
            <path d="M212.15,68.57 L208.07,45.57 C207.80928,44.0610848 208.813443,42.6240169 210.32,42.35 L250.18,35.28 C251.695002,35.0330821 253.124902,36.0563538 253.38,37.57 L257.46,60.57 C257.72072,62.0789152 256.716557,63.5159831 255.21,63.79 L215.38,70.84 C213.862313,71.10021 212.419323,70.0860964 212.15,68.57 L212.15,68.57 Z" id="Path" stroke="#8EB1B7" stroke-width="2"></path>
            <path d="M202.52,75.89 L214.18,55.64 C214.956989,54.3259132 216.64584,53.880306 217.97,54.64 L253.06,74.84 C254.374087,75.6169885 254.819694,77.3058397 254.06,78.63 L242.38,98.86 C241.603011,100.174087 239.91416,100.619694 238.59,99.86 L203.5,79.66 C202.204962,78.8770748 201.770176,77.2044806 202.52,75.89 Z" id="Path" stroke="#8EB1B7" stroke-width="2"></path>
            <path d="M190.45,75.3 L212.39,67.3 C213.828311,66.7817117 215.415843,67.5175062 215.95,68.95 L229.86,106.95 C230.38418,108.388566 229.646496,109.980175 228.21,110.51 L206.27,118.51 C204.831689,119.028288 203.244157,118.292494 202.71,116.86 L188.8,78.86 C188.27582,77.4214342 189.013504,75.8298254 190.45,75.3 L190.45,75.3 Z" id="Path" stroke="#8EB1B7" stroke-width="2"></path>
            <path d="M181.58,67.1 L203.58,75.04 C205.019102,75.5617393 205.765646,77.1487034 205.25,78.59 L191.46,116.67 C190.93393,118.110423 189.343961,118.856279 187.9,118.34 L165.9,110.4 C164.459577,109.87393 163.713721,108.283961 164.23,106.84 L177.99,68.77 C178.24244,68.0708448 178.763442,67.501332 179.437421,67.1878097 C180.1114,66.8742875 180.882626,66.8426802 181.58,67.1 Z" id="Path" stroke="#8EB1B7" stroke-width="2"></path>
            <path d="M180.05,55.11 L191.79,75.32 C192.555518,76.643385 192.10877,78.3365591 190.79,79.11 L155.79,99.45 C154.463602,100.21643 152.767327,99.7700419 151.99,98.45 L140.25,78.24 C139.484482,76.916615 139.93123,75.2234409 141.25,74.45 L176.25,54.11 C177.577171,53.3493703 179.269146,53.7946268 180.05,55.11 Z" id="Path" stroke="#8EB1B7" stroke-width="2"></path>
            <path d="M186.58,44.94 L182.58,67.94 C182.315621,69.4492031 180.879968,70.4599743 179.37,70.2 L139.48,63.29 C137.970797,63.025621 136.960026,61.5899681 137.22,60.08 L141.22,37.08 C141.484379,35.5707969 142.920032,34.5600257 144.43,34.82 L184.32,41.73 C185.829203,41.994379 186.839974,43.4300319 186.58,44.94 Z" id="Path" stroke="#8EB1B7" stroke-width="2"></path>
            <path d="M198.12,41.34 L180.27,56.42 C179.708246,56.8959184 178.980136,57.1286173 178.246493,57.0666986 C177.512851,57.0047799 176.834042,56.6533385 176.36,56.09 L150.23,25.17 C149.754082,24.6082462 149.521383,23.8801362 149.583301,23.1464935 C149.64522,22.4128507 149.996662,21.7340415 150.56,21.26 L168.38,6.18 C168.941754,5.70408157 169.669864,5.47138267 170.403507,5.53330137 C171.137149,5.59522007 171.815958,5.94666151 172.29,6.51 L198.42,37.43 C199.412865,38.5938677 199.278797,40.3412215 198.12,41.34 L198.12,41.34 Z" id="Path" stroke="#8EB1B7" stroke-width="2"></path>
            <path d="M451.88,85.69 L407.01,85.69 L407.01,290.31 L451.88,290.31 L451.88,238.79 L500.94,290.31 L563.8,290.31 L496.5,222.31 L559.86,163.88 L498.47,163.88 L451.88,209.45 L451.88,85.69 Z M288.93,163.84 L244.06,163.84 L244.06,290.31 L288.93,290.31 L288.93,224.73 C288.912324,220.96174 289.284302,217.20175 290.04,213.51 C290.698949,210.170081 291.995977,206.988629 293.86,204.14 C295.662921,201.433071 298.122952,199.227645 301.01,197.73 C304.554281,196.039858 308.45635,195.236794 312.38,195.39 C317.96,195.39 322.16,196.54 324.95,198.84 C327.705301,201.093842 329.759251,204.08803 330.87,207.47 C332.038838,211.018718 332.623122,214.73382 332.6,218.47 L332.6,290.33 L377.47,290.33 L377.47,212.15 C377.539567,204.953212 376.627841,197.780523 374.76,190.83 C373.164183,184.757159 370.309064,179.087805 366.38,174.19 C362.430034,169.46868 357.382675,165.787885 351.68,163.47 C345.68,160.916667 338.406667,159.643333 329.86,159.649974 C320.98,159.649974 313.336667,161.13 306.93,164.09 C300.523333,167.05 294.69,172.383333 289.43,180.09 L288.94,180.09 L288.94,163.84 L288.93,163.84 Z M214.48,163.84 L169.61,163.84 L169.61,290.31 L214.48,290.31 L214.48,163.84 Z M-3.41060513e-13,290.31 L44.87,290.31 L44.87,276.26 L45.38,276.26 C49.4034829,282.439265 55.2050955,287.254185 62.02,290.07 C68.8352297,292.995142 76.1735459,294.505671 83.59,294.51 C101.118777,294.695317 117.892269,287.385567 129.69,274.42 C135.342197,268.144646 139.774624,260.870312 142.76,252.97 C145.910219,244.666152 147.496923,235.851133 147.44,226.97 C147.48365,218.168048 145.896896,209.43412 142.76,201.21 C139.79343,193.329454 135.407642,186.059349 129.82,179.76 C118.188497,166.780053 101.517714,159.456282 84.09,159.67 C76.7089518,159.668048 69.3928285,161.048513 62.52,163.74 C55.6891366,166.340013 49.6251371,170.622304 44.89,176.19 L44.89,85.7 L-3.41060513e-13,85.7 L-3.41060513e-13,290.31 Z M84.44,200.94 C87.809547,202.393053 90.865812,204.484897 93.44,207.1 C95.9248484,209.681262 97.8545213,212.744235 99.11,216.1 C100.448604,219.643433 101.126468,223.40219 101.110293,227.19 C101.110293,235.25 98.6033333,241.99 93.59,247.41 C88.5766667,252.83 81.46,255.55 72.24,255.57 C63.0333333,255.57 55.9266667,252.86 50.92,247.44 C45.9133333,242.02 43.4,235.27 43.379707,227.19 C43.3635322,223.40219 44.0413964,219.643433 45.38,216.1 C46.6354787,212.744235 48.5651516,209.681262 51.05,207.1 C53.6197476,204.479595 56.6771181,202.386995 60.05,200.94 C67.8846388,197.822705 76.6153612,197.822705 84.45,200.94" id="Shape" fill="#8EB1B7" fill-rule="nonzero"></path>
        </g>
        <path d="M21.9277344,290.673828 L21.9277344,247.8125 L29.3105469,247.8125 C40.2936198,247.8125 49.0208333,244.986979 55.4921875,239.335938 C61.9635417,233.684896 65.1992188,226.028646 65.1992188,216.367188 C65.1992188,207.34375 62.1686198,199.869792 56.1074219,193.945312 C52.6438802,190.527344 48.6334635,188.203125 44.0761719,186.972656 C39.5644531,185.742188 32.8880208,185.126953 24.046875,185.126953 L24.046875,185.126953 L6,185.126953 L6,290.673828 L21.9277344,290.673828 Z M27.875,233.046875 L21.9277344,233.046875 L21.9277344,199.824219 L27.1914062,199.824219 C42.2760417,199.824219 49.8183594,205.270182 49.8183594,216.162109 C49.8183594,227.41862 42.5039062,233.046875 27.875,233.046875 L27.875,233.046875 Z M130.960938,292.587891 C146.364583,292.587891 159.51237,287.278646 170.404297,276.660156 C181.250651,266.08724 186.673828,253.212891 186.673828,238.037109 C186.673828,222.952474 181.273438,210.032552 170.472656,199.277344 C159.717448,188.522135 146.820312,183.144531 131.78125,183.144531 C116.559896,183.144531 103.526042,188.476562 92.6796875,199.140625 C81.7877604,209.804688 76.3417969,222.565104 76.3417969,237.421875 C76.3417969,254.329427 82.311849,268.001302 94.2519531,278.4375 C105.098307,287.871094 117.334635,292.587891 130.960938,292.587891 Z M131.166016,277.685547 C120.957682,277.685547 111.957031,273.925781 104.164062,266.40625 C96.3255208,258.886719 92.40625,249.29362 92.40625,237.626953 C92.40625,226.507161 96.1888021,217.164714 103.753906,209.599609 C111.31901,201.943359 120.593099,198.115234 131.576172,198.115234 C142.604818,198.115234 151.85612,201.943359 159.330078,209.599609 C166.849609,217.210286 170.609375,226.64388 170.609375,237.900391 C170.609375,249.020182 166.804036,258.453776 159.193359,266.201172 C151.582682,273.857422 142.240234,277.685547 131.166016,277.685547 Z M239.447266,297.441406 L267.748047,222.587891 L294.886719,297.373047 L342.054688,185.126953 L324.759766,185.126953 L295.570312,255.673828 L268.089844,180 L239.378906,255.673828 L211.898438,185.126953 L194.603516,185.126953 L239.447266,297.441406 Z M413.421875,290.673828 L413.421875,275.703125 L371.107422,275.703125 L371.107422,240.429688 L412.191406,240.429688 L412.191406,225.458984 L371.107422,225.458984 L371.107422,200.097656 L413.421875,200.097656 L413.421875,185.126953 L355.179688,185.126953 L355.179688,290.673828 L413.421875,290.673828 Z M450.267578,290.673828 L450.267578,247.470703 L453.138672,247.470703 L483.285156,290.673828 L502.767578,290.673828 L470.091797,245.693359 C477.110026,244.189453 482.761068,240.748698 487.044922,235.371094 C491.328776,229.99349 493.470703,223.567708 493.470703,216.09375 C493.470703,206.523438 490.052734,198.821615 483.216797,192.988281 C477.01888,187.747396 466.947266,185.126953 453.001953,185.126953 L453.001953,185.126953 L434.339844,185.126953 L434.339844,290.673828 L450.267578,290.673828 Z M455.326172,233.59375 L450.267578,233.59375 L450.267578,200.097656 L455.941406,200.097656 C470.615885,200.097656 477.953125,205.498047 477.953125,216.298828 C477.953125,227.828776 470.410807,233.59375 455.326172,233.59375 L455.326172,233.59375 Z M576.869141,290.673828 L576.869141,275.703125 L534.554688,275.703125 L534.554688,240.429688 L575.638672,240.429688 L575.638672,225.458984 L534.554688,225.458984 L534.554688,200.097656 L576.869141,200.097656 L576.869141,185.126953 L518.626953,185.126953 L518.626953,290.673828 L576.869141,290.673828 Z M619.662109,290.673828 C630.371745,290.673828 638.643229,289.69401 644.476562,287.734375 C650.720052,285.77474 656.690104,282.288411 662.386719,277.275391 C673.734375,267.249349 679.408203,254.124349 679.408203,237.900391 C679.408203,221.722005 673.96224,208.665365 663.070312,198.730469 C657.692708,193.808594 651.69987,190.322266 645.091797,188.271484 C638.939453,186.17513 630.554036,185.126953 619.935547,185.126953 L619.935547,185.126953 L597.787109,185.126953 L597.787109,290.673828 L619.662109,290.673828 Z M620.892578,275.703125 L613.714844,275.703125 L613.714844,200.097656 L620.892578,200.097656 C634.473307,200.097656 644.75,203.310547 651.722656,209.736328 C659.470052,216.936849 663.34375,226.32487 663.34375,237.900391 C663.34375,249.384766 659.424479,258.704427 651.585938,265.859375 C647.757812,269.322917 643.473958,271.852214 638.734375,273.447266 C633.994792,274.951172 628.047526,275.703125 620.892578,275.703125 L620.892578,275.703125 Z M766.771484,290.673828 C773.972005,290.673828 779.964844,290.013021 784.75,288.691406 C789.125,287.324219 793.067057,284.886068 796.576172,281.376953 C802.409505,275.680339 805.326172,268.707682 805.326172,260.458984 C805.326172,254.169922 803.685547,248.655599 800.404297,243.916016 C797.16862,239.130859 792.748047,235.78125 787.142578,233.867188 C792.930339,228.626302 795.824219,222.223307 795.824219,214.658203 C795.824219,210.511068 794.935547,206.409505 793.158203,202.353516 C791.426432,198.343099 789.079427,194.99349 786.117188,192.304688 C783.200521,189.707031 779.623047,187.861328 775.384766,186.767578 C771.192057,185.673828 765.563802,185.126953 758.5,185.126953 L758.5,185.126953 L742.640625,185.126953 L742.640625,290.673828 L766.771484,290.673828 Z M763.558594,230.449219 L758.568359,230.449219 L758.568359,199.755859 L764.173828,199.755859 C769.551432,199.755859 773.652995,201.043294 776.478516,203.618164 C779.304036,206.193034 780.716797,209.964193 780.716797,214.931641 C780.716797,220.035807 779.338216,223.898112 776.581055,226.518555 C773.823893,229.138997 769.483073,230.449219 763.558594,230.449219 L763.558594,230.449219 Z M768.412109,275.703125 L758.568359,275.703125 L758.568359,243.779297 L766.634766,243.779297 C775.202474,243.779297 781.14974,245.30599 784.476562,248.359375 C787.894531,251.458333 789.603516,255.286458 789.603516,259.84375 C789.603516,264.53776 787.826172,268.411458 784.271484,271.464844 C780.899089,274.290365 775.61263,275.703125 768.412109,275.703125 L768.412109,275.703125 Z M862.679688,290.673828 L862.679688,245.078125 L897.269531,185.126953 L878.949219,185.126953 L854.75,227.304688 L830.619141,185.126953 L812.298828,185.126953 L846.751953,245.078125 L846.751953,290.673828 L862.679688,290.673828 Z" id="POWEREDBY" fill="#8EB1B7" fill-rule="nonzero"></path>
    </g>
</svg>