<svg xmlns="http://www.w3.org/2000/svg" xmlns:xlink="http://www.w3.org/1999/xlink" viewBox="0 0 571.06 474.82"><defs><style>.cls-1,.cls-3{fill:none;}.cls-2{clip-path:url(#clip-path);}.cls-3{stroke:#8eb1b7;stroke-miterlimit:10;stroke-width:2px;}.cls-4{fill:#8eb1b7;}</style><clipPath id="clip-path" transform="translate(-147.12)"><rect class="cls-1" y="6.5" width="864.57" height="544.25"/></clipPath></defs><g id="Layer_2" data-name="Layer 2"><g id="Layer_1-2" data-name="Layer 1"><g class="cls-2"><path class="cls-3" d="M356.94,129.48H333.57a2.79,2.79,0,0,1-2.78-2.78V86.21a2.79,2.79,0,0,1,2.78-2.78h23.37a2.79,2.79,0,0,1,2.78,2.78V126.7A2.79,2.79,0,0,1,356.94,129.48Z" transform="translate(-147.12)"/></g><g class="cls-2"><path class="cls-3" d="M362.46,140.23l-17.91-15a2.77,2.77,0,0,1-.34-3.91l26-31a2.77,2.77,0,0,1,3.91-.34L392,105a2.78,2.78,0,0,1,.34,3.91l-26,31A2.78,2.78,0,0,1,362.46,140.23Z" transform="translate(-147.12)"/></g><g class="cls-2"><path class="cls-3" d="M359.77,152l-4.08-23a2.79,2.79,0,0,1,2.25-3.22l39.86-7.07A2.79,2.79,0,0,1,401,121l4.08,23a2.79,2.79,0,0,1-2.25,3.22L363,154.27A2.8,2.8,0,0,1,359.77,152Z" transform="translate(-147.12)"/></g><g class="cls-2"><path class="cls-3" d="M350.14,159.32l11.66-20.25a2.79,2.79,0,0,1,3.79-1l35.09,20.2a2.79,2.79,0,0,1,1,3.79L390,182.29a2.79,2.79,0,0,1-3.79,1l-35.09-20.2A2.79,2.79,0,0,1,350.14,159.32Z" transform="translate(-147.12)"/></g><g class="cls-2"><path class="cls-3" d="M338.07,158.73l21.94-8a2.79,2.79,0,0,1,3.56,1.65l13.91,38a2.78,2.78,0,0,1-1.65,3.56l-21.94,8a2.79,2.79,0,0,1-3.56-1.65l-13.91-38A2.78,2.78,0,0,1,338.07,158.73Z" transform="translate(-147.12)"/></g><g class="cls-2"><path class="cls-3" d="M329.2,150.53l22,7.94a2.78,2.78,0,0,1,1.67,3.55L339.08,200.1a2.79,2.79,0,0,1-3.56,1.67l-22-7.94a2.79,2.79,0,0,1-1.67-3.56l13.76-38.07A2.79,2.79,0,0,1,329.2,150.53Z" transform="translate(-147.12)"/></g><g class="cls-2"><path class="cls-3" d="M327.67,138.54l11.74,20.21a2.78,2.78,0,0,1-1,3.79l-35,20.34a2.79,2.79,0,0,1-3.8-1l-11.74-20.21a2.78,2.78,0,0,1,1-3.79l35-20.34A2.8,2.8,0,0,1,327.67,138.54Z" transform="translate(-147.12)"/></g><g class="cls-2"><path class="cls-3" d="M334.2,128.37l-4,23a2.78,2.78,0,0,1-3.21,2.26l-39.89-6.91a2.78,2.78,0,0,1-2.26-3.21l4-23a2.78,2.78,0,0,1,3.21-2.26l39.89,6.91A2.78,2.78,0,0,1,334.2,128.37Z" transform="translate(-147.12)"/></g><g class="cls-2"><path class="cls-3" d="M345.74,124.77l-17.85,15.08a2.77,2.77,0,0,1-3.91-.33L297.85,108.6a2.77,2.77,0,0,1,.33-3.91L316,89.61a2.77,2.77,0,0,1,3.91.33l26.13,30.92A2.78,2.78,0,0,1,345.74,124.77Z" transform="translate(-147.12)"/></g><g class="cls-2"><path class="cls-4" d="M599.5,169.12H554.63V373.74H599.5V322.22l49.06,51.52h62.86l-67.3-68,63.36-58.43H646.09L599.5,292.88V169.12ZM436.55,247.27H391.68V373.74h44.87V308.16a54.67,54.67,0,0,1,1.11-11.22,26.47,26.47,0,0,1,3.82-9.37,19.23,19.23,0,0,1,7.15-6.41A24.22,24.22,0,0,1,460,278.82c5.58,0,9.78,1.15,12.57,3.45a18.68,18.68,0,0,1,5.92,8.63,34.48,34.48,0,0,1,1.73,11v71.86h44.87V295.58a79.2,79.2,0,0,0-2.71-21.32A44.78,44.78,0,0,0,514,257.62,37.65,37.65,0,0,0,499.3,246.9q-9-3.83-21.82-3.82-13.32,0-22.93,4.44t-17.5,16h-.49V247.27Zm-74.45,0H317.23V373.74H362.1ZM147.62,373.74h44.87V359.69H193a36.48,36.48,0,0,0,16.64,13.81,54.77,54.77,0,0,0,21.57,4.44,61.45,61.45,0,0,0,46.1-20.09,67.93,67.93,0,0,0,13.07-21.45,72,72,0,0,0,4.68-26,71.29,71.29,0,0,0-4.68-25.76,68.91,68.91,0,0,0-12.94-21.45,60.41,60.41,0,0,0-45.73-20.09,59.11,59.11,0,0,0-21.57,4.07,43.42,43.42,0,0,0-17.63,12.45V169.13H147.62V373.74Zm84.44-89.37a28.42,28.42,0,0,1,9,6.16,26.23,26.23,0,0,1,5.67,9,31,31,0,0,1,2,11.09q0,12.09-7.52,20.22T219.86,339q-13.81,0-21.32-8.13T191,310.62a31,31,0,0,1,2-11.09,26.23,26.23,0,0,1,5.67-9,28.15,28.15,0,0,1,9-6.16,33,33,0,0,1,24.4,0" transform="translate(-147.12)"/></g><g class="cls-2"><path class="cls-4" d="M707.7,473.81H711v-9.46l7.18-12.44h-3.8l-5,8.75-5-8.75h-3.8l7.15,12.44Zm-21-18.79v-3.11H673.35V455h5v18.79h3.3V455ZM652,451.91v21.9h9.74v-3.1h-6.44V451.92H652Zm-28.85,13.47,3.4-7.45,3.25,7.45Zm10.3,8.43h3.62l-10.45-23.27-10.83,23.27h3.56l2.44-5.32h9.37Zm-38.37,0h3.3v-9.46l7.18-12.44h-3.8l-5,8.75-5-8.75h-3.8l7.15,12.44ZM558.29,457a8.17,8.17,0,0,1,11.53,0,8.49,8.49,0,0,1,0,11.74A8.22,8.22,0,0,1,558.29,457m-2,14.28a11.59,11.59,0,0,0,15.8-.37,10.76,10.76,0,0,0,3.38-8A11.46,11.46,0,0,0,564.1,451.5a11.16,11.16,0,0,0-8.11,3.32,11.31,11.31,0,0,0,.32,16.45m-26.8-19.36v21.9h9.74v-3.1h-6.44V451.92h-3.3ZM493.2,455v-3.11H479.84V455h5v18.79h3.3V455ZM456,455h1.18q4.57,0,4.57,3.36c0,2.39-1.57,3.59-4.69,3.59H456v-7Zm7.63,7.32a6.22,6.22,0,0,0,1.33-4,6,6,0,0,0-2.13-4.79q-1.94-1.64-6.27-1.63h-3.87v21.9H456v-9h.6l6.25,9h4l-6.78-9.33a6.09,6.09,0,0,0,3.53-2.15m-40.95,3,3.4-7.45,3.25,7.45Zm10.3,8.43h3.62l-10.45-23.27-10.83,23.27h3.56l2.44-5.32h9.37Zm-52.63,0,2.35-13.23,6.3,14.24,6.48-14.22,2.11,13.22H401l-4.14-23.54-7.79,17-7.52-17-4.61,23.54h3.43Zm-26.48-22.32a6.86,6.86,0,0,0-4.7,1.67,5.27,5.27,0,0,0-1.89,4.13q0,3.66,4.5,5.56l2.11.88a9.8,9.8,0,0,1,1.42.74,4.29,4.29,0,0,1,1,.84,2.81,2.81,0,0,1,.55,1,3.88,3.88,0,0,1-.84,3.79,3.78,3.78,0,0,1-5.55-.39,5.66,5.66,0,0,1-.79-2.67l-3.35.74a7.74,7.74,0,0,0,2.28,4.75,6.77,6.77,0,0,0,4.71,1.69,7,7,0,0,0,5-2,6.69,6.69,0,0,0,2-5,6,6,0,0,0-1.23-3.81,9.26,9.26,0,0,0-3.9-2.63l-2.18-.89c-1.59-.65-2.38-1.51-2.38-2.58a2.4,2.4,0,0,1,.91-1.93,3.82,3.82,0,0,1,4.11-.33,4.58,4.58,0,0,1,1.43,1.7l2.68-1.59a6.54,6.54,0,0,0-5.91-3.68m-45.32.42H296.49v21.9h12.08v-3.1h-8.78v-7.32h8.52v-3.11h-8.52V455h8.78Zm-38.32,0v21.9H280v-3.1h-6.44V451.92h-3.3Zm-25.74,3h1.09q4.69,0,4.69,3.39c0,2.34-1.52,3.5-4.55,3.5h-1.23Zm1.53,10a8,8,0,0,0,5.43-1.76,6,6,0,0,0,2-4.76,6.23,6.23,0,0,0-1.89-4.65,5.61,5.61,0,0,0-2.5-1.45,16.68,16.68,0,0,0-4.15-.38H241.2v21.9h3.31v-8.89H246Zm-43.47,8.89,2.35-13.23,6.3,14.24,6.48-14.22,2.11,13.22h3.39l-4.14-23.54-7.79,17-7.52-17-4.61,23.54h3.43Zm-23.41,0h3.3v-21.9h-3.3Zm-22.67-22.32a6.82,6.82,0,0,0-4.69,1.67,5.27,5.27,0,0,0-1.89,4.13q0,3.66,4.49,5.56l2.11.88a9.8,9.8,0,0,1,1.42.74,4.29,4.29,0,0,1,1,.84,3,3,0,0,1,.55,1,3.88,3.88,0,0,1-.84,3.79,3.78,3.78,0,0,1-5.55-.39,5.66,5.66,0,0,1-.79-2.67l-3.35.74a7.74,7.74,0,0,0,2.28,4.75,6.77,6.77,0,0,0,4.71,1.69,6.92,6.92,0,0,0,5-2,6.69,6.69,0,0,0,2-5,6,6,0,0,0-1.23-3.81,9.26,9.26,0,0,0-3.9-2.63l-2.18-.89c-1.59-.65-2.38-1.51-2.38-2.58a2.4,2.4,0,0,1,.91-1.93,3.39,3.39,0,0,1,2.28-.78,3.35,3.35,0,0,1,1.83.45,4.58,4.58,0,0,1,1.43,1.7l2.68-1.59a6.52,6.52,0,0,0-5.9-3.68" transform="translate(-147.12)"/></g><path class="cls-4" d="M160,.82c3.19,0,6.71.44,9.63,3a11.29,11.29,0,0,1,3.57,8.91c0,4.62-1.76,7.2-3.13,8.63-2.92,3-6.77,3.25-9.35,3.25h-5.17V37.5h-8.47V.82Zm-4.45,16.89h3a6.49,6.49,0,0,0,4.56-1.38,5.1,5.1,0,0,0,1.37-3.63,4.85,4.85,0,0,0-1.37-3.57c-1.26-1.21-3.08-1.38-4.73-1.38h-2.86Z" transform="translate(-147.12)"/><path class="cls-4" d="M223.73,5.33a19.08,19.08,0,0,1,5.72,13.86,19,19,0,0,1-5.72,13.75,19.59,19.59,0,0,1-14.19,5.39,20.17,20.17,0,0,1-14.29-5.39,18.73,18.73,0,0,1-5.72-13.64,20.46,20.46,0,0,1,5.66-13.91c2.48-2.48,7-5.39,14.35-5.39C215.26,0,220.05,1.76,223.73,5.33Zm-22.27,5.61a11.27,11.27,0,0,0-3.24,8.31,11,11,0,0,0,3.35,8.25,10.79,10.79,0,0,0,7.86,3,11.11,11.11,0,0,0,8.14-3.13,11,11,0,0,0,3.19-8.2,11.57,11.57,0,0,0-3.19-8.25,11.75,11.75,0,0,0-8.08-3.13A11.25,11.25,0,0,0,201.46,10.94Z" transform="translate(-147.12)"/><path class="cls-4" d="M253.44.82l7.8,24.31L269.05.82h5.83l7.81,24.31L290.5.82h8.8L286.82,37.5h-7.15L272,15.23l-7.7,22.27h-7.15L244.64.82Z" transform="translate(-147.12)"/><path class="cls-4" d="M336.92,8H324.66v7.1h11.66v7.15H324.66v8.14h12.26V37.5H316.19V.82h20.73Z" transform="translate(-147.12)"/><path class="cls-4" d="M369.32.82c4.67,0,7.59,1.54,9.35,3.19a11.08,11.08,0,0,1,3.19,8.2A10.06,10.06,0,0,1,379,19.69a11.51,11.51,0,0,1-5.12,2.8l11.28,15H374.82L364.92,23V37.5h-8.47V.82Zm-4.4,16.67h1.92c1.54,0,3.63-.17,5.06-1.6a4.9,4.9,0,0,0,1.38-3.57,4.44,4.44,0,0,0-1.71-3.74,8.22,8.22,0,0,0-4.67-1.16h-2Z" transform="translate(-147.12)"/><path class="cls-4" d="M423.22,8H411v7.1h11.66v7.15H411v8.14h12.27V37.5H402.49V.82h20.73Z" transform="translate(-147.12)"/><path class="cls-4" d="M454.35.82c4.84,0,9.95.72,14.46,5.06A17.51,17.51,0,0,1,474.09,19c0,5.77-2,10-5,13C464,37.12,457.7,37.5,454.62,37.5H442.75V.82Zm-3.14,29.54h2.26c1.76,0,5.61-.17,8.36-2.48,2-1.65,3.57-4.78,3.57-8.85a10.86,10.86,0,0,0-3-7.92C459.63,8.36,456.05,8,453.47,8h-2.26Z" transform="translate(-147.12)"/><path class="cls-4" d="M529.75.82c2,0,6.49.11,9.35,2.81a9.43,9.43,0,0,1,2.64,6.93,8.59,8.59,0,0,1-1.21,4.67,6.74,6.74,0,0,1-3.08,2.7,9.51,9.51,0,0,1,5.06,2.47A9,9,0,0,1,544.88,27,10,10,0,0,1,542,34.37c-3,2.92-7.43,3.13-9.68,3.13h-13.8V.82Zm-2.86,14.91h1.38a7.88,7.88,0,0,0,4.29-1.05A3.89,3.89,0,0,0,534,11.44a3.72,3.72,0,0,0-1.43-3.08c-1.21-.94-2.86-.94-4.4-.94h-1.32Zm0,15.18h2c2.14,0,4.73-.06,6.27-1.49a4,4,0,0,0,1.21-3.08,4,4,0,0,0-1.16-3c-1.48-1.37-4.34-1.37-6-1.37h-2.31Z" transform="translate(-147.12)"/><path class="cls-4" d="M573,20.4,559.84.82h10l7.37,11.39L584.59.82h10L581.45,20.4V37.5H573Z" transform="translate(-147.12)"/></g></g></svg>