<?xml version="1.0" encoding="UTF-8"?>
<svg width="50px" height="37px" viewBox="0 0 50 37" version="1.1" xmlns="http://www.w3.org/2000/svg" xmlns:xlink="http://www.w3.org/1999/xlink">
    <!-- Generator: Sketch 59.1 (86144) - https://sketch.com -->
    <title>logo_MasterCard</title>
    <desc>Created with Sketch.</desc>
    <g id="Payment-Cards" stroke="none" stroke-width="1" fill="none" fill-rule="evenodd">
        <g id="Artboard" transform="translate(-430.000000, -464.000000)" fill="#FFFFFF" fill-rule="nonzero">
            <g id="card/payment" transform="translate(313.000000, 456.000000)">
                <g id="card/payment/logo/Visa" transform="translate(103.000000, 8.000000)">
                    <g id="card/payment/logo_MasterCard">
                        <g id="logo_MasterCard" transform="translate(14.129870, 0.000000)">
                            <path d="M9.072897,36.787725 L9.072897,34.3385108 C9.10318607,33.9218158 8.94393611,33.5128436 8.63577477,33.2159306 C8.32761343,32.9190176 7.90034121,32.7628765 7.4629632,32.7873418 C6.88657014,32.7513171 6.33529428,33.0172266 6.02429895,33.4812858 C5.7415058,33.0323835 5.22436746,32.7663107 4.67555122,32.7873418 C4.19638927,32.7642486 3.74023173,32.9847952 3.47666435,33.3669892 L3.47666435,32.8853104 L2.58606267,32.8853104 L2.58606267,36.787725 L3.48522783,36.787725 L3.48522783,34.6242524 C3.44650308,34.3540593 3.5362994,34.0814891 3.73011214,33.8809239 C3.92392487,33.6803588 4.20152386,33.5727336 4.48715471,33.5874184 C5.07375293,33.5874184 5.37347465,33.9548006 5.37347465,34.6160884 L5.37347465,36.787725 L6.27263981,36.787725 L6.27263981,34.6242524 C6.2355041,34.3543666 6.3258495,34.0826795 6.51930289,33.8824862 C6.71275628,33.6822929 6.98938708,33.5742183 7.27456669,33.5874184 C7.88257361,33.5874184 8.17373185,33.9548006 8.17373185,34.6160884 L8.17373185,36.787725 L9.072897,36.787725 Z M22.3719778,32.8853104 L20.9161866,32.8853104 L20.9161866,31.7015235 L20.0170215,31.7015235 L20.0170215,32.8853104 L19.1863641,32.8853104 L19.1863641,33.6608949 L20.0170215,33.6608949 L20.0170215,35.4406572 C20.0170215,36.3468664 20.385251,36.8857012 21.4385588,36.8857012 C21.8320436,36.8867325 22.217872,36.7820419 22.5518108,36.5836238 L22.2949065,35.8570236 C22.0560725,35.9928365 21.7850074,36.0686776 21.5070666,36.0774529 C21.0788927,36.0774529 20.9161866,35.8162033 20.9161866,35.4243291 L20.9161866,33.6608949 L22.3719778,33.6608949 L22.3719778,32.8853104 Z M29.9677825,32.7873418 C29.5254435,32.7749396 29.1114275,32.9942201 28.8887843,33.3588251 L28.8887843,32.8853104 L28.0067461,32.8853104 L28.0067461,36.787725 L28.8973478,36.787725 L28.8973478,34.5997603 C28.8973478,33.9548006 29.188506,33.5955825 29.7536956,33.5955825 C29.9441833,33.5930984 30.133321,33.6263874 30.3103216,33.693551 L30.5843529,32.8771463 C30.3809797,32.8077009 30.1666788,32.7718095 29.9506555,32.7710137 L29.9677825,32.7873418 Z M18.484159,33.1955442 C17.9800377,32.9097931 17.4004294,32.7681076 16.8142808,32.7873418 C15.7781,32.7873418 15.1015853,33.2608565 15.1015853,34.036441 C15.1015853,34.6732367 15.598267,35.065111 16.5145591,35.1875717 L16.942733,35.24472 C17.4308512,35.3100324 17.6620651,35.4324931 17.6620651,35.6529224 C17.6620651,35.9549922 17.3366529,36.1264371 16.728646,36.1264371 C16.2395869,36.1399332 15.7599896,35.9961511 15.3670531,35.7182348 L14.9388792,36.3795226 C15.4576606,36.724858 16.0790299,36.9022878 16.7115191,36.8856935 C17.893279,36.8856935 18.5783572,36.3550305 18.5783572,35.6121022 C18.5783572,34.8691739 18.0388581,34.5671041 17.1482564,34.4446434 L16.7200826,34.3874951 C16.3347261,34.3385108 16.0264409,34.2650344 16.0264409,34.0037848 C16.0264409,33.7425353 16.3175991,33.5465982 16.8057173,33.5465982 C17.2568737,33.5515946 17.6991432,33.666843 18.090239,33.8813241 L18.484159,33.1955442 Z M42.337726,32.7873418 C41.895387,32.7749396 41.4813709,32.9942201 41.2587278,33.3588251 L41.2587278,32.8853104 L40.3766896,32.8853104 L40.3766896,36.787725 L41.2672913,36.787725 L41.2672913,34.5997603 C41.2672913,33.9548006 41.5584495,33.5955825 42.123639,33.5955825 C42.3141268,33.5930984 42.5032644,33.6263874 42.6802651,33.693551 L42.9542964,32.8771463 C42.7509232,32.8077009 42.5366223,32.7718095 42.320599,32.7710137 L42.337726,32.7873418 Z M30.8669477,34.8283536 C30.8455294,35.38287 31.0702039,35.9203205 31.4858232,36.3087846 C31.9014426,36.6972488 32.4695262,36.9007601 33.0506345,36.8693655 C33.5853717,36.8953026 34.1108932,36.7292704 34.5235526,36.4040148 L34.0953787,35.7182348 C33.7875093,35.9420567 33.4120915,36.0651767 33.024944,36.0692888 C32.3423067,36.0166321 31.8164611,35.4731131 31.8164611,34.8201896 C31.8164611,34.1672661 32.3423067,33.6237471 33.024944,33.5710903 C33.4120915,33.5752025 33.7875093,33.6983225 34.0953787,33.9221444 L34.5235526,33.2363644 C34.1108932,32.9111088 33.5853717,32.7450766 33.0506345,32.7710137 C32.4695262,32.7396191 31.9014426,32.9431304 31.4858232,33.3315945 C31.0702039,33.7200587 30.8455294,34.2575092 30.8669477,34.8120255 L30.8669477,34.8283536 Z M39.2034932,34.8283536 L39.2034932,32.8771463 L38.3128915,32.8771463 L38.3128915,33.3506611 C38.0060635,32.9742781 37.5280386,32.7616049 37.0283698,32.7791778 C35.8460003,32.7791778 34.8875004,33.6929699 34.8875004,34.8201896 C34.8875004,35.9474093 35.8460003,36.8612014 37.0283698,36.8612014 C37.5280386,36.8787742 38.0060635,36.6661011 38.3128915,36.2897181 L38.3128915,36.7632328 L39.2034932,36.7632328 L39.2034932,34.8283536 Z M35.8894273,34.8283536 C35.9290313,34.1877488 36.4984798,33.6948199 37.171119,33.7188892 C37.8437581,33.7429585 38.3728454,34.2751967 38.361967,34.9168294 C38.3510887,35.5584621 37.8042353,36.0741207 37.1311316,36.0774529 C36.7883951,36.0815872 36.4594228,35.9490642 36.2236437,35.7118809 C35.9878646,35.4746976 35.8667082,35.1544112 35.8894273,34.8283536 L35.8894273,34.8283536 Z M25.1465446,32.7873418 C23.9641751,32.803123 23.0190943,33.7297081 23.0356475,34.8569278 C23.0522007,35.9841474 24.0241195,36.8851464 25.2064889,36.8693655 C25.8174633,36.8898486 26.4149565,36.6951302 26.8849305,36.3223743 L26.4567567,35.6937426 C26.1186543,35.9522485 25.6997888,36.0958917 25.2664333,36.101945 C24.655018,36.1499321 24.1135901,35.7276081 24.041856,35.1467515 L27.0818905,35.1467515 C27.0818905,35.0406189 27.0818905,34.9344862 27.0818905,34.8201896 C27.0818905,33.5955825 26.2854871,32.7791778 25.1379811,32.7791778 L25.1465446,32.7873418 Z M25.1465446,33.5465982 C25.415696,33.5411276 25.6760972,33.6378436 25.870432,33.8154582 C26.0647669,33.9930728 26.1771069,34.237028 26.1827254,34.4936277 L24.041856,34.4936277 C24.0741096,33.9486054 24.5571539,33.527979 25.1294176,33.5465982 L25.1465446,33.5465982 Z M47.4843761,34.8365177 L47.4843761,31.3178133 L46.5937744,31.3178133 L46.5937744,33.3588251 C46.2869464,32.9824421 45.8089215,32.769769 45.3092527,32.7873418 C44.1268832,32.7873418 43.1683833,33.7011339 43.1683833,34.8283536 C43.1683833,35.9555733 44.1268832,36.8693655 45.3092527,36.8693655 C45.8089215,36.8869383 46.2869464,36.6742651 46.5937744,36.2978821 L46.5937744,36.7713969 L47.4843761,36.7713969 L47.4843761,34.8365177 Z M44.1703102,34.8365177 C44.2099142,34.1959129 44.7793627,33.702984 45.4520019,33.7270533 C46.124641,33.7511225 46.6537283,34.2833608 46.6428499,34.9249934 C46.6319716,35.5666261 46.0851182,36.0822847 45.4120145,36.0856169 C45.069278,36.0897513 44.7403057,35.9572283 44.5045266,35.7200449 C44.2687475,35.4828616 44.1475911,35.1625753 44.1703102,34.8365177 L44.1703102,34.8365177 Z M14.0996584,34.8365177 L14.0996584,32.8853104 L13.2090567,32.8853104 L13.2090567,33.3588251 C12.9022287,32.9824421 12.4242038,32.769769 11.9245351,32.7873418 C10.7421655,32.7873418 9.78366565,33.7011339 9.78366565,34.8283536 C9.78366565,35.9555733 10.7421655,36.8693655 11.9245351,36.8693655 C12.4242038,36.8869383 12.9022287,36.6742651 13.2090567,36.2978821 L13.2090567,36.7713969 L14.0996584,36.7713969 L14.0996584,34.8365177 Z M10.7855925,34.8365177 C10.8251965,34.1959129 11.394645,33.702984 12.0672842,33.7270533 C12.7399234,33.7511225 13.2690106,34.2833608 13.2581323,34.9249934 C13.2472539,35.5666261 12.7004005,36.0822847 12.0272968,36.0856169 C11.6830833,36.0920593 11.3518208,35.9605466 11.1141426,35.7230906 C10.8764645,35.4856346 10.7541707,35.1640148 10.7770291,34.8365177 L10.7855925,34.8365177 Z M48.9701394,36.2244057 C49.0244702,36.2231738 49.0784599,36.2329116 49.1285638,36.2529799 C49.1773137,36.2728756 49.2221894,36.3004772 49.2612977,36.3346204 C49.2993597,36.3710278 49.3298666,36.4139611 49.3512142,36.4611631 C49.3722643,36.5089299 49.3824786,36.5604014 49.3811864,36.612198 C49.3823948,36.662667 49.3721717,36.7127908 49.3512142,36.7591508 C49.3298666,36.8063528 49.2993597,36.8492861 49.2612977,36.8856935 C49.2221894,36.9198367 49.1773137,36.9474383 49.1285638,36.967334 C49.0787406,36.9886863 49.0247648,36.9998124 48.9701394,36.9999952 C48.9140847,37.0002655 48.8586138,36.9891321 48.8074334,36.967334 C48.7582607,36.948204 48.7132503,36.9205195 48.6746995,36.8856935 C48.6366374,36.8492861 48.6061306,36.8063528 48.5847829,36.7591508 C48.5623532,36.7131042 48.5506666,36.6629673 48.550529,36.612198 C48.5507155,36.5601205 48.562386,36.5086623 48.5847829,36.4611631 C48.6061306,36.4139611 48.6366374,36.3710278 48.6746995,36.3346204 C48.7132503,36.2997944 48.7582607,36.2721099 48.8074334,36.2529799 C48.856282,36.2336894 48.9087043,36.2239716 48.961576,36.2244057 L48.9701394,36.2244057 Z M48.9701394,36.9142677 C49.0115298,36.9148412 49.0525186,36.9064676 49.0900281,36.8897756 C49.1282432,36.8742847 49.1630929,36.8521353 49.1927899,36.8244632 C49.2205261,36.7959888 49.2423228,36.7627408 49.2570159,36.7264946 C49.2741192,36.690606 49.2828828,36.6516167 49.2827064,36.612198 C49.2833691,36.5714183 49.2745976,36.5310003 49.2570159,36.4938193 C49.2423228,36.4575731 49.2205261,36.4243251 49.1927899,36.3958507 C49.1620267,36.3694598 49.1274128,36.3474602 49.0900281,36.3305383 C49.0516175,36.3171289 49.0110443,36.3102216 48.9701394,36.3101282 C48.927841,36.3102388 48.8858641,36.3171386 48.845969,36.3305383 C48.8085844,36.3474602 48.7739704,36.3694598 48.7432073,36.3958507 C48.7141813,36.4241625 48.6909482,36.4573866 48.6746995,36.4938193 C48.6585854,36.531316 48.651278,36.5717217 48.6532908,36.612198 C48.6516288,36.6513274 48.6589346,36.6903319 48.6746995,36.7264946 C48.7068544,36.8003978 48.7684501,36.8591204 48.845969,36.8897756 C48.8823378,36.9054038 48.9216873,36.9137403 48.961576,36.9142677 L48.9701394,36.9142677 Z M48.9701394,36.4285069 C49.0114275,36.426713 49.0521478,36.4382155 49.0857464,36.4611631 C49.1110951,36.4812659 49.1253114,36.5113843 49.124282,36.5428036 C49.1256452,36.571073 49.1129517,36.5983012 49.0900281,36.61628 C49.0676282,36.638741 49.0368822,36.6519314 49.0043934,36.6530182 L49.1285638,36.787725 L49.0300838,36.787725 L48.9144768,36.6530182 L48.8802229,36.6530182 L48.8802229,36.787725 L48.7988699,36.787725 L48.7988699,36.4285069 L48.9701394,36.4285069 Z M48.8802229,36.4979013 L48.8802229,36.5917878 L48.9701394,36.5917878 C48.9869018,36.5965523 49.0047579,36.5965523 49.0215203,36.5917878 C49.0276273,36.5802338 49.0276273,36.5666037 49.0215203,36.5550496 C49.0276392,36.5449458 49.0276392,36.5324973 49.0215203,36.5223934 C49.0047579,36.517629 48.9869018,36.517629 48.9701394,36.5223934 L48.8802229,36.4979013 Z M48.3963864,23.8109718 L48.3963864,23.337457 L48.5976282,23.337457 L48.5976282,23.2394885 L48.0881012,23.2394885 L48.0881012,23.337457 L48.2850612,23.337457 L48.2850612,23.8109718 L48.3963864,23.8109718 Z M49.3854681,23.8109718 L49.3854681,23.2394885 L49.2313255,23.2394885 L49.0514925,23.6476908 L48.8716594,23.2394885 L48.7132351,23.2394885 L48.7132351,23.8109718 L48.8245603,23.8109718 L48.8245603,23.3782773 L48.9915481,23.7497414 L49.1071551,23.7497414 L49.2741429,23.3782773 L49.2741429,23.8109718 L49.3854681,23.8109718 Z M23.5623012,26.6479782 C23.6821899,26.7500288 23.8106421,26.8439154 23.9348125,26.9418839 C17.4996404,31.0113914 8.89891241,29.9131907 3.8138196,24.372696 C-1.2712732,18.8322012 -1.2712732,10.5594247 3.8138196,5.01892995 C8.89891241,-0.521564809 17.4996404,-1.61976542 23.9348125,2.44974201 C23.8106421,2.54362855 23.6821899,2.64159712 23.5623012,2.74364771 C19.9315186,5.7472325 17.8460778,10.1047436 17.8460778,14.6876489 C17.8460778,19.2705543 19.9315186,23.6280653 23.5623012,26.6316501 L23.5623012,26.6479782 Z M34.46789,0.0291019815 C31.431621,0.0210490283 28.4613529,0.87355014 25.9343845,2.47831617 C26.058555,2.57220272 26.1870071,2.67017129 26.3068958,2.77222188 C29.9350788,5.77726229 32.0186209,10.1342349 32.0186209,14.7162231 C32.0186209,19.2982113 29.9350788,23.6551839 26.3068958,26.6602243 C26.1870071,26.7622749 26.058555,26.8561614 25.9343845,26.95413 C31.4307529,30.4299471 38.6377296,30.1867018 43.8625134,26.3490313 C49.0872972,22.5113608 51.1719759,15.9297664 49.0483757,9.97660795 C46.9247755,4.02344954 41.0635269,0.0180611208 34.46789,0.0127738869 L34.46789,0.0291019815 Z M24.9410211,3.1559321 C24.7440611,3.30288495 24.5471011,3.45800185 24.3587046,3.61720077 C20.9937481,6.40815188 19.0618086,10.4518372 19.0618086,14.703977 C19.0618086,18.9561168 20.9937481,22.9998021 24.3587046,25.7907533 C24.5471011,25.9499522 24.7440611,26.1009871 24.9410211,26.2520219 C25.1379811,26.1009871 25.3349411,25.9499522 25.5233376,25.7907533 C28.8882941,22.9998021 30.8202336,18.9561168 30.8202336,14.703977 C30.8202336,10.4518372 28.8882941,6.40815188 25.5233376,3.61720077 C25.3349411,3.45800185 25.1379811,3.30288495 24.9410211,3.1559321 L24.9410211,3.1559321 Z" id="Shape"></path>
                        </g>
                    </g>
                </g>
            </g>
        </g>
    </g>
</svg>