<?xml version="1.0" encoding="UTF-8"?>
<svg alt="" width="20px" height="20px" viewBox="0 0 20 20" version="1.1" xmlns="http://www.w3.org/2000/svg" xmlns:xlink="http://www.w3.org/1999/xlink">
    <title>Menu</title>
    <g id="Secondary-Functions" stroke="none" stroke-width="1" fill="none" fill-rule="evenodd" opacity="0.6">
        <g transform="translate(-858.000000, -83.000000)" fill="#000000" fill-rule="nonzero" id="Group">
            <g transform="translate(760.000000, 82.000000)">
                <path d="M108.814328,20.0588235 C109.047431,20.0588235 109.242195,19.9944461 109.39862,19.8656913 C109.555044,19.7369364 109.657794,19.5591321 109.706868,19.3322783 L110.148538,17.4377426 C110.308029,17.382562 110.465988,17.3243157 110.622412,17.2630039 C110.778837,17.201692 110.927593,17.1373146 111.068682,17.0698716 L112.724942,18.0907136 C112.915106,18.2133373 113.111403,18.2639196 113.313835,18.2424604 C113.516267,18.2210013 113.697229,18.1336319 113.85672,17.9803523 L114.988498,16.8399522 C115.154124,16.6866726 115.246139,16.5058027 115.264542,16.2973425 C115.282944,16.0888823 115.227736,15.8896188 115.098916,15.6995521 L114.077555,14.0533294 C114.151167,13.9061809 114.218644,13.7574998 114.279987,13.6072858 C114.34133,13.4570718 114.393471,13.305325 114.436411,13.1520454 L116.341111,12.7014034 C116.574214,12.6523539 116.752109,12.5496566 116.874795,12.3933114 C116.997481,12.2369663 117.058824,12.0423012 117.058824,11.8093162 L117.058824,10.2182741 C117.058824,9.99142032 116.997481,9.79982084 116.874795,9.64347566 C116.752109,9.48713049 116.574214,9.38443316 116.341111,9.3353837 L114.445613,8.88474171 C114.396539,8.71306858 114.34133,8.55059222 114.279987,8.39731263 C114.218644,8.24403304 114.157301,8.10301583 114.095958,7.97426097 L115.108117,6.30964467 C115.236937,6.1134468 115.292146,5.91571613 115.273743,5.71645267 C115.25534,5.51718921 115.166393,5.3347865 115.006901,5.16924455 L113.85672,4.03804121 C113.691094,3.88476162 113.5132,3.79585946 113.323036,3.77133473 C113.132873,3.74680999 112.94271,3.79279387 112.752547,3.90928635 L111.068682,4.94852195 C110.933728,4.88107893 110.789572,4.8182343 110.636214,4.75998806 C110.482857,4.70174181 110.320298,4.64196277 110.148538,4.58065094 L109.706868,2.66772171 C109.657794,2.44086792 109.555044,2.2630636 109.39862,2.13430875 C109.242195,2.0055539 109.047431,1.94117647 108.814328,1.94117647 L107.194873,1.94117647 C106.96177,1.94117647 106.767006,2.0055539 106.610582,2.13430875 C106.454157,2.2630636 106.351408,2.44086792 106.302333,2.66772171 L105.851462,4.56225739 L105.372987,4.74619289 L105.372987,4.74619289 C105.213495,4.80750473 105.063205,4.87188215 104.922116,4.93932517 L103.247453,3.90928635 C103.05729,3.79279387 102.867127,3.74680999 102.676964,3.77133473 C102.4868,3.79585946 102.308906,3.88476162 102.14328,4.03804121 L100.993099,5.16924455 C100.833607,5.3347865 100.74466,5.51718921 100.726257,5.71645267 C100.707854,5.91571613 100.763063,6.1134468 100.891883,6.30964467 L101.904042,7.97426097 C101.848833,8.10301583 101.790558,8.24403304 101.729215,8.39731263 C101.667872,8.55059222 101.609596,8.71306858 101.554387,8.88474171 L99.6588893,9.3353837 C99.425786,9.38443316 99.2478913,9.48713049 99.1252054,9.64347566 C99.0025194,9.79982084 98.9411765,9.99142032 98.9411765,10.2182741 L98.9411765,11.8093162 C98.9411765,12.0423012 99.0025194,12.2369663 99.1252054,12.3933114 C99.2478913,12.5496566 99.425786,12.6523539 99.6588893,12.7014034 L101.57279,13.1520454 C101.61573,13.305325 101.667872,13.4570718 101.729215,13.6072858 C101.790558,13.7574998 101.854968,13.9061809 101.922445,14.0533294 L100.910286,15.6995521 C100.775331,15.8896188 100.717056,16.0888823 100.735458,16.2973425 C100.753861,16.5058027 100.845876,16.6866726 101.011502,16.8399522 L102.14328,17.9803523 C102.302771,18.1336319 102.483733,18.2210013 102.686165,18.2424604 C102.888597,18.2639196 103.084894,18.2133373 103.275058,18.0907136 L104.931318,17.0698716 C105.072407,17.1373146 105.221163,17.201692 105.377588,17.2630039 C105.534012,17.3243157 105.691971,17.382562 105.851462,17.4377426 L106.302333,19.3322783 C106.351408,19.5591321 106.454157,19.7369364 106.610582,19.8656913 C106.767006,19.9944461 106.96177,20.0588235 107.194873,20.0588235 L108.814328,20.0588235 Z M108.004601,14.0809197 C107.440245,14.0809197 106.923431,13.9399025 106.454157,13.657868 C105.984883,13.3758336 105.612225,13.0018314 105.336181,12.5358615 C105.060138,12.0698915 104.922116,11.5518065 104.922116,10.9816064 C104.922116,10.4236688 105.060138,9.91324774 105.336181,9.45034339 C105.612225,8.98743904 105.984883,8.61496964 106.454157,8.3329352 C106.923431,8.05090077 107.440245,7.90988355 108.004601,7.90988355 C108.568956,7.90988355 109.084237,8.05090077 109.550444,8.3329352 C110.01665,8.61496964 110.390842,8.98743904 110.67302,9.45034339 C110.955198,9.91324774 111.096287,10.4236688 111.096287,10.9816064 C111.096287,11.5518065 110.955198,12.0698915 110.67302,12.5358615 C110.390842,13.0018314 110.01665,13.3758336 109.550444,13.657868 C109.084237,13.9399025 108.568956,14.0809197 108.004601,14.0809197 Z" id="􀣌"></path>
            </g>
        </g>
    </g>
</svg>