<?xml version="1.0" encoding="UTF-8"?>
<svg width="38px" height="38px" viewBox="0 0 38 38" version="1.1" xmlns="http://www.w3.org/2000/svg" xmlns:xlink="http://www.w3.org/1999/xlink">
    <!-- Generator: Sketch 59.1 (86144) - https://sketch.com -->
    <title>tabbar/icons/add</title>
    <desc>Created with Sketch.</desc>
    <defs>
        <linearGradient x1="100%" y1="50%" x2="0%" y2="50%" id="linearGradient-1">
            <stop stop-color="#B46FEA" offset="0%"></stop>
            <stop stop-color="#4371FE" offset="100%"></stop>
        </linearGradient>
    </defs>
    <g id="Symbols" stroke="none" stroke-width="1" fill="none" fill-rule="evenodd">
        <g id="tabbar/icons/add" fill="url(#linearGradient-1)">
            <g>
                <path d="M5.56445111,5.56563857 C12.9853025,-1.85521286 25.01351,-1.85521286 32.4343614,5.56563857 C39.8552129,12.98649 39.8552129,25.0146975 32.4343614,32.4355489 C25.01351,39.854817 12.9853025,39.854817 5.56445111,32.4355489 C-1.85481704,25.0146975 -1.85481704,12.98649 5.56445111,5.56563857 Z M8.00727818,8.00824974 C1.93696788,14.0798555 1.93696788,23.9211161 8.00727818,29.9927218 C14.0788839,36.0630321 23.9201445,36.0630321 29.9917503,29.9927218 C36.063356,23.9211161 36.063356,14.0798555 29.9917503,8.00824974 C23.9201445,1.93664403 14.0788839,1.93664403 8.00727818,8.00824974 Z" id="stroke" opacity="0.5"></path>
                <path d="M10.5143902,10.5151402 C15.2012437,5.82828662 22.7980063,5.82828662 27.4848598,10.5151402 C32.1717134,15.2019937 32.1717134,22.7987563 27.4848598,27.4856098 C22.7980063,32.1714634 15.2012437,32.1714634 10.5143902,27.4856098 C5.82853661,22.7987563 5.82853661,15.2019937 10.5143902,10.5151402 Z M19.0277778,13 L18.9722222,13 C18.4352787,13 18,13.4352787 18,13.9722222 L18,13.9722222 L18,18 L13.9722222,18 C13.4736318,18 13.0627014,18.3753169 13.0065408,18.8588406 L13,18.9722222 L13,19.0277778 C13,19.5647213 13.4352787,20 13.9722222,20 L13.9722222,20 L18,20 L18,24.0277778 C18,24.5263682 18.3753169,24.9372986 18.8588406,24.9934592 L18.9722222,25 L19.0277778,25 C19.5647213,25 20,24.5647213 20,24.0277778 L20,24.0277778 L20,20 L24.0277778,20 C24.5263682,20 24.9372986,19.6246831 24.9934592,19.1411594 L25,19.0277778 L25,18.9722222 C25,18.4352787 24.5647213,18 24.0277778,18 L24.0277778,18 L20,18 L20,13.9722222 C20,13.4736318 19.6246831,13.0627014 19.1411594,13.0065408 L19.0277778,13 Z" id="Combined-Shape"></path>
            </g>
        </g>
    </g>
</svg>