<?xml version="1.0" encoding="UTF-8"?>
<svg width="20px" height="20px" viewBox="0 0 20 20" version="1.1" xmlns="http://www.w3.org/2000/svg" xmlns:xlink="http://www.w3.org/1999/xlink">
    <title>Warning</title>
    <g id="Symbols" stroke="none" stroke-width="1" fill="none" fill-rule="evenodd">
        <g id="icons/pending" fill="#F5A623" fill-rule="nonzero">
            <g id="icons/attention">
                <path d="M10,0 C4.47591167,0 0,4.47591167 0,10 C0,15.5240883 4.47591167,20 10,20 C15.5240883,20 20,15.5240883 20,10 C20,4.47591167 15.5240883,0 10,0 Z M10,16.3834633 C9.21875,16.3834633 8.68489583,15.78125 8.68489583,15 C8.68489583,14.1959633 9.24153667,13.6165367 10,13.6165367 C10.8040367,13.6165367 11.3151042,14.1959633 11.3151042,15 C11.3151042,15.78125 10.8040367,16.3834633 10,16.3834633 Z M10.5175783,11.1002608 C10.3190108,11.7805992 9.690755,11.790365 9.48242167,11.1002608 C9.24153667,10.3027342 8.38541667,7.27864583 8.38541667,5.315755 C8.38541667,2.72460917 11.6276042,2.71158833 11.6276042,5.315755 C11.6276042,7.29166667 10.7259117,10.39388 10.5175783,11.1002608 Z" id="Shape"></path>
            </g>
        </g>
    </g>
</svg>
