<?xml version="1.0" encoding="UTF-8"?>
<svg width="44px" height="44px" viewBox="0 0 44 44" version="1.1" xmlns="http://www.w3.org/2000/svg" xmlns:xlink="http://www.w3.org/1999/xlink">
    <title>1A6B30AA-B9DD-4B11-BB74-146335CF5BFE@1x</title>
    <defs>
        <linearGradient x1="100%" y1="50%" x2="0%" y2="50%" id="linearGradient-1">
            <stop stop-color="#FBD249" offset="0%"></stop>
            <stop stop-color="#F5A623" offset="100%"></stop>
        </linearGradient>
    </defs>
    <g id="Symbols" stroke="none" stroke-width="1" fill="none" fill-rule="evenodd">
        <g id="icon-log-in">
            <g id="icon-bg-red-grad" fill="url(#linearGradient-1)">
                <path d="M6.44304865,6.44442361 C15.0356135,-2.1481412 28.9630116,-2.1481412 37.5555764,6.44442361 C46.1481412,15.0369884 46.1481412,28.9643865 37.5555764,37.5569513 C28.9630116,46.1476829 15.0356135,46.1476829 6.44304865,37.5569513 C-2.14768288,28.9643865 -2.14768288,15.0369884 6.44304865,6.44442361 Z M9.27158526,9.27271023 C2.24280491,16.3029905 2.24280491,27.6981344 9.27158526,34.7284147 C16.3018656,41.7571951 27.6970095,41.7571951 34.7272898,34.7284147 C41.7575701,27.6981344 41.7575701,16.3029905 34.7272898,9.27271023 C27.6970095,2.24242992 16.3018656,2.24242992 9.27158526,9.27271023 Z" id="stroke" opacity="0.5"></path>
                <path d="M31.8990032,12.1009968 C26.4310074,6.63300105 17.5681177,6.63300105 12.1001219,12.1009968 C6.63329271,17.5689926 6.63329271,26.4318823 12.1001219,31.8998781 C17.5681177,37.3667073 26.4310074,37.3667073 31.8990032,31.8998781 C37.3669989,26.4318823 37.3669989,17.5689926 31.8990032,12.1009968" id="fill"></path>
            </g>
            <g id="icons8-contacts" transform="translate(15.000000, 14.000000)" fill="#FFFFFF" fill-rule="nonzero">
                <path d="M9.27350427,9.78897851 C9.17129646,9.75740069 8.5306271,9.47563358 8.93198022,8.2878396 L8.92699414,8.2878396 C9.97150997,7.24092888 10.7692308,5.55275568 10.7692308,3.89130132 C10.7692308,1.33839395 9.02670924,0 7,0 C4.97329076,0 3.24074074,1.33839395 3.24074074,3.89130132 C3.24074074,5.5600423 4.0334761,7.25307448 5.08547009,8.29998458 C5.49430199,9.34689531 4.76139633,9.7355396 4.60933032,9.78897851 C2.48789206,10.5371188 0,11.8998027 0,13.2454832 C0,13.6074087 0,13.388796 0,13.7507208 C0,15.5822074 3.64458721,16 7.01994302,16 C10.4002849,16 14,15.5822074 14,13.7507208 C14,13.388796 14,13.6074087 14,13.2454832 C14,11.8609383 11.4996437,10.5079705 9.27350427,9.78897851 Z" id="Shape"></path>
            </g>
        </g>
    </g>
</svg>