<?xml version="1.0" encoding="UTF-8"?>
<svg width="44px" height="44px" viewBox="0 0 44 44" version="1.1" xmlns="http://www.w3.org/2000/svg" xmlns:xlink="http://www.w3.org/1999/xlink">
    <title>EA185726-887F-4B10-9666-774968E6BBD9@1x</title>
    <defs>
        <linearGradient x1="100%" y1="50%" x2="0%" y2="50%" id="linearGradient-1">
            <stop stop-color="#B46FEA" offset="0%"></stop>
            <stop stop-color="#4371FE" offset="100%"></stop>
        </linearGradient>
    </defs>
    <g id="Symbols" stroke="none" stroke-width="1" fill="none" fill-rule="evenodd">
        <g id="icons/points-history/active">
            <g id="icon-bkgr" fill="url(#linearGradient-1)">
                <path d="M6.44304865,6.44442361 C15.0356135,-2.1481412 28.9630116,-2.1481412 37.5555764,6.44442361 C46.1481412,15.0369884 46.1481412,28.9643865 37.5555764,37.5569513 C28.9630116,46.1476829 15.0356135,46.1476829 6.44304865,37.5569513 C-2.14768288,28.9643865 -2.14768288,15.0369884 6.44304865,6.44442361 Z M9.27158526,9.27271023 C2.24280491,16.3029905 2.24280491,27.6981344 9.27158526,34.7284147 C16.3018656,41.7571951 27.6970095,41.7571951 34.7272898,34.7284147 C41.7575701,27.6981344 41.7575701,16.3029905 34.7272898,9.27271023 C27.6970095,2.24242992 16.3018656,2.24242992 9.27158526,9.27271023 Z" id="stroke" opacity="0.5"></path>
                <path d="M31.8990032,12.1009968 C26.4310074,6.63300105 17.5681177,6.63300105 12.1001219,12.1009968 C6.63329271,17.5689926 6.63329271,26.4318823 12.1001219,31.8998781 C17.5681177,37.3667073 26.4310074,37.3667073 31.8990032,31.8998781 C37.3669989,26.4318823 37.3669989,17.5689926 31.8990032,12.1009968" id="fill"></path>
            </g>
            <g id="icon/points-history" transform="translate(14.000000, 14.000000)" fill="#FFFFFF" fill-rule="nonzero">
                <path d="M4.08025568,-6.98347496e-05 C3.90181091,0.002604 3.73402023,0.0729166667 3.6088425,0.195312667 L0.881569773,2.86197933 C0.703125,3.028646 0.631214318,3.278646 0.695134773,3.51041667 C0.756392045,3.744792 0.942827045,3.92708333 1.18252841,3.98697933 C1.41956659,4.04947933 1.67524841,3.97916667 1.84570295,3.80468733 L3.40909091,2.276042 L3.40909091,10.6666667 L4.77272727,10.6666667 L4.77272727,2.276042 L6.33611523,3.80468733 C6.50656977,3.97916667 6.76225159,4.04947933 6.99928977,3.98697933 C7.23899182,3.92708333 7.42542614,3.744792 7.48668341,3.51041667 C7.55060386,3.278646 7.47869318,3.028646 7.30024841,2.86197933 L4.57297568,0.195312667 C4.44247159,0.0677086667 4.26402682,-0.002604 4.08025568,-6.98347496e-05 Z M10.2272727,1.85032653e-16 L10.2272727,1.33333333 L11.5909091,1.33333333 L11.5909091,1.85032653e-16 L10.2272727,1.85032653e-16 Z M10.2272727,2.66666667 L10.2272727,4 L11.5909091,4 L11.5909091,2.66666667 L10.2272727,2.66666667 Z M10.2272727,5.33333333 L10.2272727,13.7239587 L8.66388477,12.1953127 C8.53604386,12.065104 8.36026295,11.994792 8.17382795,11.9921873 C7.89683932,11.994792 7.64914773,12.158854 7.54261364,12.408854 C7.43874273,12.6614587 7.5,12.9479167 7.69975159,13.1380207 L10.4270243,15.8046873 C10.6933595,16.065104 11.1248223,16.065104 11.3911575,15.8046873 L14.1184302,13.1380207 C14.296875,12.971354 14.3687857,12.721354 14.3048652,12.4895833 C14.243608,12.2552087 14.0571736,12.0729167 13.8174716,12.0130207 C13.5804334,11.9505207 13.3247516,12.0208333 13.154297,12.1953127 L11.5909091,13.7239587 L11.5909091,5.33333333 L10.2272727,5.33333333 Z M3.40909091,12 L3.40909091,13.3333333 L4.77272727,13.3333333 L4.77272727,12 L3.40909091,12 Z M3.40909091,14.6666667 L3.40909091,16 L4.77272727,16 L4.77272727,14.6666667 L3.40909091,14.6666667 Z" id="Shape"></path>
            </g>
        </g>
    </g>
</svg>