<?xml version="1.0" encoding="UTF-8"?>
<svg width="39px" height="39px" viewBox="0 0 39 39" version="1.1" xmlns="http://www.w3.org/2000/svg" xmlns:xlink="http://www.w3.org/1999/xlink">
    <title>Bin icon</title>
    <defs>
        <path d="M24,8 C32.2842712,8 39,14.7157288 39,23 L39,24 C39,32.2842712 32.2842712,39 24,39 L23,39 C14.7157288,39 8,32.2842712 8,24 L8,23 C8,14.7157288 14.7157288,8 23,8 L24,8 Z M25.2634877,13.2167969 L21.7185658,13.2167969 C20.6443471,13.2167969 20.6443471,13.2167969 20.0242299,13.7978516 C19.4041127,14.3789062 19.4041127,14.3789062 19.4041127,15.3945312 L19.404,16.84 L15.2341908,16.8398438 C14.9802846,16.8398438 14.9802846,16.8398438 14.7947377,17.0253906 C14.6091908,17.2109375 14.6091908,17.2109375 14.6091908,17.4746094 C14.6091908,17.7382812 14.6091908,17.7382812 14.7947377,17.9238281 C14.9802846,18.109375 14.9802846,18.109375 15.2341908,18.109375 L16.6795033,18.109375 L17.2947377,31.7324219 C17.3338002,32.5625 17.3338002,32.5625 17.8269643,33.03125 C18.3201283,33.5 18.3201283,33.5 19.1502065,33.5 L27.8513783,33.5 C28.6912221,33.5 28.6912221,33.5 29.189269,33.03125 C29.6873158,32.5625 29.6873158,32.5625 29.7263783,31.7324219 L30.3318471,18.109375 L31.767394,18.109375 C32.0310658,18.109375 32.0310658,18.109375 32.2166127,17.9238281 C32.4021596,17.7382812 32.4021596,17.7382812 32.4021596,17.4746094 C32.4021596,17.2109375 32.4021596,17.2109375 32.2166127,17.0253906 C32.0310658,16.8398438 32.0310658,16.8398438 31.767394,16.8398438 L27.587,16.84 L27.5877065,15.3945312 C27.5877065,14.3789062 27.5877065,14.3789062 26.9675893,13.7978516 C26.3474721,13.2167969 26.3474721,13.2167969 25.2634877,13.2167969 Z M20.3123158,19.6816406 C20.5369252,19.6816406 20.5369252,19.6816406 20.6834096,19.8183594 C20.829894,19.9550781 20.829894,19.9550781 20.8396596,20.1894531 L21.1228627,30.3457031 C21.1326283,30.5703125 21.1326283,30.5703125 20.986144,30.7119141 C20.8396596,30.8535156 20.8396596,30.8535156 20.595519,30.8535156 C20.3709096,30.8535156 20.3709096,30.8535156 20.2244252,30.7167969 C20.0779408,30.5800781 20.0779408,30.5800781 20.0681752,30.3554688 L19.7849721,20.1894531 C19.7752065,19.9648438 19.7752065,19.9648438 19.9216908,19.8232422 C20.0681752,19.6816406 20.0681752,19.6816406 20.3123158,19.6816406 Z M23.5056752,19.6816406 C23.7498158,19.6816406 23.7498158,19.6816406 23.901183,19.8232422 C24.0525502,19.9648438 24.0525502,19.9648438 24.0525502,20.1894531 L24.0525502,30.3457031 C24.0525502,30.5703125 24.0525502,30.5703125 23.901183,30.7119141 C23.7498158,30.8535156 23.7498158,30.8535156 23.5056752,30.8535156 C23.2615346,30.8535156 23.2615346,30.8535156 23.1101674,30.7119141 C22.9588002,30.5703125 22.9588002,30.5703125 22.9588002,30.3457031 L22.9588002,20.1894531 C22.9588002,19.9648438 22.9588002,19.9648438 23.1101674,19.8232422 C23.2615346,19.6816406 23.2615346,19.6816406 23.5056752,19.6816406 Z M26.6990346,19.6816406 C26.9431752,19.6816406 26.9431752,19.6816406 27.0896596,19.8232422 C27.236144,19.9648438 27.236144,19.9648438 27.2263783,20.1894531 L26.9334096,30.3652344 C26.9334096,30.5800781 26.9334096,30.5800781 26.7869252,30.7167969 C26.6404408,30.8535156 26.6404408,30.8535156 26.4060658,30.8535156 C26.1619252,30.8535156 26.1619252,30.8535156 26.0203236,30.7119141 C25.8787221,30.5703125 25.8787221,30.5703125 25.8787221,30.3554688 L26.1716908,20.1894531 C26.1814565,19.9550781 26.1814565,19.9550781 26.3279408,19.8183594 C26.4744252,19.6816406 26.4744252,19.6816406 26.6990346,19.6816406 Z M25.1853627,14.6425781 C25.595519,14.6425781 25.595519,14.6425781 25.8347768,14.8671875 C26.0740346,15.0917969 26.0740346,15.0917969 26.0740346,15.4726562 L26.074,16.84 L20.927,16.84 L20.9275502,15.4726562 C20.9275502,15.0917969 20.9275502,15.0917969 21.1619252,14.8671875 C21.3963002,14.6425781 21.3963002,14.6425781 21.8064565,14.6425781 L25.1853627,14.6425781 Z" id="path-1"></path>
        <filter x="-16.1%" y="-16.1%" width="145.2%" height="145.2%" filterUnits="objectBoundingBox" id="filter-2">
            <feOffset dx="2" dy="2" in="SourceAlpha" result="shadowOffsetOuter1"></feOffset>
            <feGaussianBlur stdDeviation="2" in="shadowOffsetOuter1" result="shadowBlurOuter1"></feGaussianBlur>
            <feComposite in="shadowBlurOuter1" in2="SourceAlpha" operator="out" result="shadowBlurOuter1"></feComposite>
            <feColorMatrix values="0 0 0 0 0   0 0 0 0 0   0 0 0 0 0  0 0 0 0.496092043 0" type="matrix" in="shadowBlurOuter1"></feColorMatrix>
        </filter>
    </defs>
    <g id="Payment-Card" stroke="none" stroke-width="1" fill="none" fill-rule="evenodd">
        <g id="Payment-Breakdown---States" transform="translate(-26.000000, -26.000000)">
            <g id="Combined-Shape" transform="translate(20.000000, 20.000000)">
                <use fill="black" fill-opacity="1" filter="url(#filter-2)" xlink:href="#path-1"></use>
                <use fill-opacity="0.8" fill="#FFFFFF" fill-rule="evenodd" xlink:href="#path-1"></use>
            </g>
        </g>
    </g>
</svg>
