<?xml version="1.0" encoding="UTF-8"?>
<svg width="76px" height="78px" viewBox="0 0 76 78" version="1.1" xmlns="http://www.w3.org/2000/svg" xmlns:xlink="http://www.w3.org/1999/xlink">
    <title>Group 5</title>
    <g id="Page-1" stroke="none" stroke-width="1" fill="none" fill-rule="evenodd" opacity="0.503059024">
        <g id="Wallet-Empty-Alt-B" transform="translate(-682.000000, -153.000000)" stroke="#000000" stroke-width="2">
            <g id="Group-6" transform="translate(683.000000, 153.635894)">
                <path d="M47.8564376,2.39004773 C50.7970603,1.43186362 53.9576677,3.0389476 54.9158518,5.97957026 C55.0983957,6.53978914 55.1913835,7.12530686 55.1913835,7.71451606 L55.1913835,17.9837785 L68.4,17.9837785 C71.4927946,17.9837785 74,20.4909839 74,23.5837785 L74,70.4 C74,73.4927946 71.4927946,76 68.4,76 L8.4,76 C3.7608081,76 1.1358536e-15,72.2391919 0,67.6 L0,17.9837785 L47.8564376,2.39004773 Z M0.698113208,17.9837785 L56.5471698,17.9837785" id="Combined-Shape"></path>
                <path d="M73.3018868,36.1575346 L56.8753831,36.1575346 C53.0093899,36.1575346 49.8753831,39.2915414 49.8753831,43.1575346 L49.8753831,51.5252345 C49.8753831,55.3912277 53.0093899,58.5252345 56.8753831,58.5252345 L73.3018868,58.5252345 L73.3018868,58.5252345" id="Line-2" stroke-linecap="square"></path>
            </g>
        </g>
    </g>
</svg>