<?xml version="1.0" encoding="UTF-8"?>
<svg width="43px" height="42px" viewBox="0 0 43 42" version="1.1" xmlns="http://www.w3.org/2000/svg" xmlns:xlink="http://www.w3.org/1999/xlink">
    <!-- Generator: Sketch 59.1 (86144) - https://sketch.com -->
    <title>logo_AmEx</title>
    <desc>Created with Sketch.</desc>
    <defs>
        <polygon id="path-1" points="0 41.9796733 42.0841683 41.9796733 42.0841683 0 0 0"></polygon>
    </defs>
    <g id="Payment-Cards" stroke="none" stroke-width="1" fill="none" fill-rule="evenodd">
        <g id="Artboard" transform="translate(-240.000000, -464.000000)">
            <g id="card/payment" transform="translate(117.000000, 456.000000)">
                <g id="card/payment/logo_AmEx" transform="translate(88.000000, 8.000000)">
                    <g id="logo_AmEx" transform="translate(35.000000, 0.000000)">
                        <path d="M15.127592,22.6618786 L15.8763114,23.6378946 L16.6497343,22.6618786 L41.9796481,22.6618786 L41.9796481,1.68336673e-05 L1.68336673e-05,1.68336673e-05 L1.68336673e-05,17.6944317 L1.57367014,14.0257022 L4.29512705,14.0257022 L5.18819519,16.0807984 L5.18819519,14.0257022 L8.57125731,14.0257022 L9.10290661,15.5110629 L9.61831142,14.0257022 L24.8046782,14.0257022 L24.8046782,14.7724437 C24.8046782,14.7724437 25.6030569,14.0257022 26.9150309,14.0257022 L31.8424557,14.0429146 L32.720121,16.071119 L32.720121,14.0257022 L35.5512072,14.0257022 L36.3304377,15.1907182 L36.3304377,14.0257022 L39.1874898,14.0257022 L39.1874898,20.6164617 L36.3304377,20.6164617 L35.5836962,19.4476581 L35.5836962,20.6164617 L31.4241812,20.6164617 L31.0058645,19.5775299 L29.8876461,19.5775299 L29.4761471,20.6164617 L26.6552874,20.6164617 C25.5263375,20.6164617 24.8046782,19.8849968 24.8046782,19.8849968 L24.8046782,20.6164617 L20.5515259,20.6164617 L19.7074016,19.5775299 L19.7074016,20.6164617 L3.89196072,20.6164617 L3.47393868,19.5775299 L2.35929739,19.5775299 L1.94422124,20.6164617 L1.68336673e-05,20.6164617 L1.68336673e-05,41.9796481 L41.9796481,41.9796481 L41.9796481,28.7981711 C41.9796481,28.7981711 41.3172433,29.2460729 40.5511431,29.2526381 L26.5254156,29.2526381 L25.6812914,28.2137483 L25.6812914,29.2526381 L22.915099,29.2526381 L22.915099,27.4791691 C22.915099,27.4791691 22.5372673,27.7267503 21.7203295,27.7267503 L20.7788224,27.7267503 L20.7788224,29.2526381 L16.5905639,29.2526381 L15.8429387,28.2557062 L15.0838244,29.2526381 L8.14919519,29.2526381 L8.14919519,22.6618786 L15.127592,22.6618786 Z" id="Fill-1" fill="#FFFFFF"></path>
                        <path d="M2.91593206,15.9867319 L3.6099,17.7135715 L2.219902,17.7135715 L2.91593206,15.9867319 Z M2.13064148,14.8382128 L0.00812645291,19.7731707 L1.3900022,19.7731707 L1.78159539,18.7849503 L4.0583489,18.7849503 L4.44796413,19.7731707 L5.86026673,19.7731707 L3.73977174,14.8382128 L2.13064148,14.8382128 Z" id="Fill-3" fill="#FFFFFF"></path>
                        <polygon id="Fill-5" fill="#FFFFFF" points="6.00636613 19.7723333 6.00636613 14.8373754 7.9700976 14.8446559 9.11226192 18.0264295 10.2270715 14.8373754 12.1751056 14.8373754 12.1751056 19.7723333 10.941324 19.7723333 10.941324 16.1360507 9.63351643 19.7723333 8.55157455 19.7723333 7.24010561 16.1360507 7.24010561 19.7723333"></polygon>
                        <polygon id="Fill-7" fill="#FFFFFF" points="13.019213 19.7723333 13.019213 14.8373754 17.0451108 14.8373754 17.0451108 15.9412431 14.2659565 15.9412431 14.2659565 16.7853673 16.9801749 16.7853673 16.9801749 17.8243413 14.2659565 17.8243413 14.2659565 18.7009545 17.0451108 18.7009545 17.0451108 19.7723333"></polygon>
                        <path d="M18.9931112,15.9420764 L20.4033938,15.9420764 C20.7417084,15.9420764 20.9877745,16.2067016 20.9877745,16.4615633 C20.9877745,16.789399 20.6689449,16.9810082 20.4216583,16.9810082 L18.9931112,16.9810082 L18.9931112,15.9420764 Z M17.7593717,14.8382086 L17.7593717,19.7731665 L18.9931112,19.7731665 L18.9931112,18.0199822 L19.5125982,18.0199822 L20.9918567,19.7731665 L22.499522,19.7731665 L20.8762094,17.9550463 C21.5424018,17.8988218 22.2296363,17.3269822 22.2296363,16.4392166 C22.2296363,15.4007477 21.4145501,14.8382086 20.5048587,14.8382086 L17.7593717,14.8382086 Z" id="Fill-9" fill="#FFFFFF"></path>
                        <mask id="mask-2" fill="white">
                            <use xlink:href="#path-1"></use>
                        </mask>
                        <g id="Clip-12"></g>
                        <polygon id="Fill-11" fill="#FFFFFF" mask="url(#mask-2)" points="22.7332786 19.7723206 23.9930261 19.7723206 23.9930261 14.8373627 22.7332786 14.8373627"></polygon>
                        <path d="M26.9799794,19.7723333 L26.7080735,19.7723333 C25.3924383,19.7723333 24.5936808,18.7358423 24.5936808,17.3251389 C24.5936808,15.8795898 25.3834743,14.8373754 27.0449152,14.8373754 L28.4084844,14.8373754 L28.4084844,16.006179 L26.9950455,16.006179 C26.3206046,16.006179 25.8436226,16.5325257 25.8436226,17.3373433 C25.8436226,18.2930327 26.3890335,18.6944315 27.174787,18.6944315 L27.4994663,18.6944315 L26.9799794,19.7723333 Z" id="Fill-13" fill="#FFFFFF" mask="url(#mask-2)"></path>
                        <path d="M30.4498695,15.9867319 L31.1438375,17.7135715 L29.7538816,17.7135715 L30.4498695,15.9867319 Z M29.664579,14.8382128 L27.5420218,19.7731707 L28.9238976,19.7731707 L29.3155749,18.7849503 L31.5922864,18.7849503 L31.9819016,19.7731707 L33.3942042,19.7731707 L31.2737092,14.8382128 L29.664579,14.8382128 Z" id="Fill-14" fill="#FFFFFF" mask="url(#mask-2)"></path>
                        <polygon id="Fill-15" fill="#FFFFFF" mask="url(#mask-2)" points="33.5382878 19.7723333 33.5382878 14.8373754 35.1068068 14.8373754 37.1096345 17.9379685 37.1096345 14.8373754 38.3433739 14.8373754 38.3433739 19.7723333 36.8255242 19.7723333 34.7719852 16.5906018 34.7719852 19.7723333"></polygon>
                        <polygon id="Fill-16" fill="#FFFFFF" mask="url(#mask-2)" points="8.99331102 28.4085475 8.99331102 23.4735475 13.0192088 23.4735475 13.0192088 24.5774573 10.2400545 24.5774573 10.2400545 25.4215395 12.9542729 25.4215395 12.9542729 26.4605134 10.2400545 26.4605134 10.2400545 27.3371267 13.0192088 27.3371267 13.0192088 28.4085475"></polygon>
                        <polygon id="Fill-17" fill="#FFFFFF" mask="url(#mask-2)" points="28.720185 28.4085475 28.720185 23.4735475 32.7460828 23.4735475 32.7460828 24.5774573 29.9669285 24.5774573 29.9669285 25.4215395 32.668185 25.4215395 32.668185 26.4605134 29.9669285 26.4605134 29.9669285 27.3371267 32.7460828 27.3371267 32.7460828 28.4085475"></polygon>
                        <polygon id="Fill-18" fill="#FFFFFF" mask="url(#mask-2)" points="13.1754673 28.4085475 15.1356637 25.9714954 13.128796 23.4735475 14.6831327 23.4735475 15.878323 25.017784 17.0775956 23.4735475 18.5710365 23.4735475 16.5905555 25.9410265 18.5543711 28.4085054 17.0002449 28.4085054 15.8397739 26.8886778 14.7074994 28.4085054"></polygon>
                        <path d="M19.9671283,24.5904361 L21.3347796,24.5904361 C21.6898016,24.5904361 21.9435691,24.8080112 21.9435691,25.1586144 C21.9435691,25.4879651 21.6910641,25.7267928 21.3307395,25.7267928 L19.9671283,25.7267928 L19.9671283,24.5904361 Z M18.7009419,23.4743639 L18.7009419,28.4093639 L19.9671283,28.4093639 L19.9671283,26.8509451 L21.2658036,26.8509451 C22.3646633,26.8509451 23.1975932,26.2679531 23.1975932,25.1342898 C23.1975932,24.1950974 22.5443206,23.4743639 21.4261022,23.4743639 L18.7009419,23.4743639 Z" id="Fill-19" fill="#FFFFFF" mask="url(#mask-2)"></path>
                        <path d="M24.9670094,24.5774489 L26.3773341,24.5774489 C26.7156066,24.5774489 26.9616727,24.8420741 26.9616727,25.0968938 C26.9616727,25.4247715 26.6428431,25.6163808 26.3955565,25.6163808 L24.9670094,25.6163808 L24.9670094,24.5774489 Z M23.733312,23.4735812 L23.733312,28.4085391 L24.9670094,28.4085391 L24.9670094,26.6553126 L25.4864964,26.6553126 L26.9657549,28.4085391 L28.4734202,28.4085391 L26.8501076,26.5903768 C27.5163421,26.5341523 28.2035345,25.9623126 28.2035345,25.0745892 C28.2035345,24.0361202 27.3884483,23.4735812 26.4787569,23.4735812 L23.733312,23.4735812 Z" id="Fill-20" fill="#FFFFFF" mask="url(#mask-2)"></path>
                        <path d="M33.31751,28.4085475 L33.31751,27.3371267 L35.7866303,27.3371267 C36.1519629,27.3371267 36.3101152,27.1397098 36.3101152,26.9231447 C36.3101152,26.7157118 36.1524259,26.5059643 35.7866303,26.5059643 L34.6708527,26.5059643 C33.700981,26.5059643 33.1608307,25.9150605 33.1608307,25.0279263 C33.1608307,24.2366176 33.655488,23.4735475 35.0966603,23.4735475 L37.4992455,23.4735475 L36.9797585,24.5838962 L34.9018527,24.5838962 C34.5047044,24.5838962 34.3824499,24.7923391 34.3824499,24.9913972 C34.3824499,25.1959683 34.5335321,25.4215395 34.8369168,25.4215395 L36.0057625,25.4215395 C37.0869048,25.4215395 37.5560591,26.0348321 37.5560591,26.8379663 C37.5560591,27.701323 37.0332896,28.4085475 35.9468868,28.4085475 L33.31751,28.4085475 Z" id="Fill-21" fill="#FFFFFF" mask="url(#mask-2)"></path>
                        <path d="M37.8456277,28.4085475 L37.8456277,27.3371267 L40.3147479,27.3371267 C40.6800806,27.3371267 40.8382329,27.1397098 40.8382329,26.9231447 C40.8382329,26.7157118 40.6805435,26.5059643 40.3147058,26.5059643 L39.1989703,26.5059643 C38.2290986,26.5059643 37.6889483,25.9150605 37.6889483,25.0279263 C37.6889483,24.2366176 38.1836056,23.4735475 39.624778,23.4735475 L42.0273631,23.4735475 L41.5078762,24.5838962 L39.4299703,24.5838962 C39.032822,24.5838962 38.9105255,24.7923391 38.9105255,24.9913972 C38.9105255,25.1959683 39.0616497,25.4215395 39.3650345,25.4215395 L40.5338802,25.4215395 C41.6150224,25.4215395 42.0841768,26.0348321 42.0841768,26.8379663 C42.0841768,27.701323 41.5614072,28.4085475 40.4750044,28.4085475 L37.8456277,28.4085475 Z" id="Fill-22" fill="#FFFFFF" mask="url(#mask-2)"></path>
                    </g>
                </g>
            </g>
        </g>
    </g>
</svg>