<?xml version="1.0" encoding="UTF-8"?>
<svg width="118px" height="117px" viewBox="0 0 118 117" version="1.1" xmlns="http://www.w3.org/2000/svg" xmlns:xlink="http://www.w3.org/1999/xlink">
    <title>LCD/module/icons/link/active</title>
    <defs>
        <linearGradient x1="-2.22044605e-14%" y1="50%" x2="98.2591221%" y2="50%" id="magicLinkWarningGradient">
            <stop stop-color="#F5A623" offset="0%"></stop>
            <stop stop-color="#FBD249" offset="100%"></stop>
        </linearGradient>
    </defs>
    <g id="Magic-Link" stroke="none" stroke-width="1" fill="none" fill-rule="evenodd">
        <g id="ML---Error" transform="translate(-178.000000, -36.000000)">
            <g id="icons/link/active" transform="translate(178.500000, 36.000000)">
                <g id="icon-bkgr" fill="url(#magicLinkWarningGradient)">
                    <path d="M17.1326521,17.1363082 C39.9810631,-5.71210275 77.0152808,-5.71210275 99.8636918,17.1363082 C122.712103,39.9847192 122.712103,77.0189369 99.8636918,99.8673479 C77.0152808,122.710884 39.9810631,122.710884 17.1326521,99.8673479 C-5.71088403,77.0189369 -5.71088403,39.9847192 17.1326521,17.1363082 Z M24.6539881,24.6569795 C5.96382215,43.3511339 5.96382215,73.6518575 24.6539881,92.3460119 C43.3481425,111.036178 73.6488661,111.036178 92.3430205,92.3460119 C111.037175,73.6518575 111.037175,43.3511339 92.3430205,24.6569795 C73.6488661,5.96282503 43.3481425,5.96282503 24.6539881,24.6569795 Z" id="stroke" opacity="0.5"></path>
                    <path d="M84.8223493,32.1776507 C70.2824514,17.6377528 46.715222,17.6377528 32.1753241,32.1776507 C17.6385283,46.7175486 17.6385283,70.284778 32.1753241,84.8246759 C46.715222,99.3614717 70.2824514,99.3614717 84.8223493,84.8246759 C99.3622472,70.284778 99.3622472,46.7175486 84.8223493,32.1776507" id="fill"></path>
                </g>
                <g id="Group" transform="translate(37.227273, 37.227273)" fill="#FFFFFF" fill-rule="nonzero">
                    <g id="icons/unlinked">
                        <path d="M32.1136364,0.255681818 C29.4481538,0.383522727 26.884944,1.54687582 24.9034091,3.52840909 L17.1306818,11.3011364 C18.3515629,10.0738636 22.8835227,10.9176136 23.9829545,12.0170455 L28.6875,7.3125 C29.7294038,6.27059618 31.0333811,5.63139164 32.3693182,5.57386364 C33.2769895,5.52911891 34.5617902,5.72088109 35.6931818,6.85227273 C36.7478689,7.90695982 36.9715909,9.13423255 36.9715909,9.97159091 C36.9715909,11.3714493 36.3323864,12.7649144 35.2329545,13.8579545 L27.0511364,22.0909091 C24.9928985,24.1491485 21.8607955,24.3153409 20.0454545,22.5 C19.009944,21.4644895 17.3032675,21.4580962 16.2613636,22.5 C15.2194598,23.5419038 15.2194598,25.2421871 16.2613636,26.2840909 C18.1278409,28.1505682 20.5823864,29.0965909 23.1136364,29.0965909 C25.8494318,29.0965909 28.6427553,27.9779825 30.7840909,25.8238636 L39.0170455,17.6420455 C41.1072447,15.5582395 42.2897727,12.7713076 42.2897727,9.97159091 C42.2897727,7.370028 41.3053985,4.89630764 39.4772727,3.06818182 C37.5213076,1.11221673 34.8941765,0.127840909 32.1136364,0.255681818 Z M19.4318182,13.4488636 C16.6960227,13.4488636 13.8579545,14.5738636 11.7102273,16.7215909 L3.52840909,24.9034091 C1.43820982,26.9872167 0.255681818,29.7741485 0.255681818,32.5738636 C0.255681818,35.1754265 1.24005764,37.6491485 3.06818182,39.4772727 C5.02414855,41.4332395 7.651278,42.4176136 10.4318182,42.2897727 C13.0973007,42.1619318 15.6605122,40.9985804 17.6420455,39.0170455 L25.4147727,31.2443182 C24.1875,32.4715909 19.6619318,31.6278409 18.5625,30.5284091 L13.8579545,35.2329545 C12.8160507,36.2748584 11.5120735,36.9076713 10.1761364,36.9715909 C9.26846673,37.0163356 7.98366436,36.8245735 6.85227273,35.6931818 C5.79758564,34.6384947 5.57386364,33.4048304 5.57386364,32.5738636 C5.57386364,31.1740053 6.21306818,29.7805402 7.3125,28.6875 L15.4943182,20.4545455 C17.5525576,18.3963076 20.6846591,18.2365053 22.5,20.0454545 C23.5419038,21.0873584 25.2485804,21.0873584 26.2840909,20.0454545 C27.3259947,19.0035507 27.3259947,17.3032675 26.2840909,16.2613636 C24.4176136,14.3948864 21.9566765,13.4488636 19.4318182,13.4488636 Z" id="Shape"></path>
                        <path d="M3.78409091,0 L0,3.78409091 L8.53977273,9.76704545 L9.76704545,8.53977273 L3.78409091,0 Z M34.0056818,32.7784091 L32.7784091,34.0056818 L38.7613636,42.5454545 L42.5454545,38.7613636 L34.0056818,32.7784091 Z" id="Shape"></path>
                    </g>
                </g>
            </g>
        </g>
    </g>
</svg>