<?xml version="1.0" encoding="UTF-8"?>
<svg width="403px" height="220px" viewBox="0 0 403 220" version="1.1" xmlns="http://www.w3.org/2000/svg" xmlns:xlink="http://www.w3.org/1999/xlink">
    <title>Membership Add Button</title>
    <defs>
        <linearGradient x1="50%" y1="0%" x2="50%" y2="100%" id="linearGradient-1">
            <stop stop-color="#528D8D" offset="0%"></stop>
            <stop stop-color="#274A52" offset="100%"></stop>
        </linearGradient>
        <rect id="path-2" x="0" y="0" width="403" height="220" rx="8"></rect>
        <mask id="mask-3" maskContentUnits="userSpaceOnUse" maskUnits="objectBoundingBox" x="0" y="0" width="403" height="220" fill="white">
            <use xlink:href="#path-2"></use>
        </mask>
        <linearGradient x1="50%" y1="0%" x2="50%" y2="100%" id="linearGradient-4">
            <stop stop-color="#528D8D" offset="0.0768274694%"></stop>
            <stop stop-color="#274A52" offset="100%"></stop>
        </linearGradient>
        <linearGradient x1="50%" y1="0%" x2="50%" y2="100%" id="linearGradient-5">
            <stop stop-color="#528D8D" offset="0%"></stop>
            <stop stop-color="#274A52" offset="100%"></stop>
        </linearGradient>
    </defs>
    <g id="Page-1" stroke="none" stroke-width="1" fill="none" fill-rule="evenodd" opacity="0.516286941">
        <g id="Wallet---Add-Card" transform="translate(-302.000000, -630.000000)">
            <g id="Group-3" transform="translate(302.000000, 630.000000)">
                <use id="bg-card-copy-5" stroke="url(#linearGradient-1)" mask="url(#mask-3)" stroke-width="10" stroke-dasharray="16,8" xlink:href="#path-2"></use>
                <g id="Group-9" transform="translate(166.000000, 77.000000)">
                    <path d="M35,12.8947368 C47.2083997,12.8947368 57.1052632,22.7916003 57.1052632,35 C57.1052632,47.2083997 47.2083997,57.1052632 35,57.1052632 C22.7916003,57.1052632 12.8947368,47.2083997 12.8947368,35 C12.8947368,22.7916003 22.7916003,12.8947368 35,12.8947368 Z M35.8421053,23.9473684 L34.1578947,23.9473684 C33.60561,23.9473684 33.1578947,24.3950837 33.1578947,24.9473684 L33.1578947,24.9473684 L33.1573684,33.1573684 L24.9473684,33.1578947 C24.3950837,33.1578947 23.9473684,33.60561 23.9473684,34.1578947 L23.9473684,34.1578947 L23.9473684,35.8421053 C23.9473684,36.39439 24.3950837,36.8421053 24.9473684,36.8421053 L24.9473684,36.8421053 L33.1573684,36.8413684 L33.1578947,45.0526316 C33.1578947,45.6049163 33.60561,46.0526316 34.1578947,46.0526316 L34.1578947,46.0526316 L35.8421053,46.0526316 C36.39439,46.0526316 36.8421053,45.6049163 36.8421053,45.0526316 L36.8421053,45.0526316 L36.8413684,36.8413684 L45.0526316,36.8421053 C45.6049163,36.8421053 46.0526316,36.39439 46.0526316,35.8421053 L46.0526316,35.8421053 L46.0526316,34.1578947 C46.0526316,33.60561 45.6049163,33.1578947 45.0526316,33.1578947 L45.0526316,33.1578947 L36.8413684,33.1573684 L36.8421053,24.9473684 C36.8421053,24.3950837 36.39439,23.9473684 35.8421053,23.9473684 L35.8421053,23.9473684 Z" id="Combined-Shape" fill="url(#linearGradient-4)"></path>
                    <path d="M35,0 C54.3299662,0 70,15.6700338 70,35 C70,54.3299662 54.3299662,70 35,70 C15.6700338,70 0,54.3299662 0,35 C0,15.6700338 15.6700338,0 35,0 Z M35,5.52631579 C18.7221337,5.52631579 5.52631579,18.7221337 5.52631579,35 C5.52631579,51.2778663 18.7221337,64.4736842 35,64.4736842 C51.2778663,64.4736842 64.4736842,51.2778663 64.4736842,35 C64.4736842,18.7221337 51.2778663,5.52631579 35,5.52631579 Z" id="Oval" fill="url(#linearGradient-5)" fill-rule="nonzero"></path>
                </g>
            </g>
        </g>
    </g>
</svg>